<?xml version="1.0"?>
<svg xmlns:rdf="http://www.w3.org/1999/02/22-rdf-syntax-ns#" xmlns="http://www.w3.org/2000/svg" xmlns:cc="http://web.resource.org/cc/" xmlns:xlink="http://www.w3.org/1999/xlink" xmlns:dc="http://purl.org/dc/elements/1.1/" xmlns:svg="http://www.w3.org/2000/svg" space="preserve" viewBox="0 0 528.75 390.855" enable-background="new 0 0 528.75 390.855" overflow="visible">
  <g id="Layer_1">
    <g clip-rule="evenodd" fill-rule="evenodd">
      <path stroke="#000" stroke-width=".036" stroke-miterlimit="10" d="m281.89 180.86c0.396 2.484 4.572 3.96 13.105 4.284 8.531 0.252 20.664-0.504 37.367-2.412l-0.936 3.168c5.256-2.808 9.252-3.996 12.131-3.852 2.809 0.108 2.125 2.16 4.752 4.896 2.557 2.808 6.805 8.316 10.656 11.376 3.781 2.951 7.705 4.859 11.916 6.119 2.916-1.512 5.941-3.42 8.928-5.724 3.061-2.34 5.904-5.076 9.072-8.208-1.691-4.104-2.375-7.308-1.764-9.612 0.576-2.412 3.096-4.896 5.076-4.392 1.871 0.504 3.816 2.736 5.977 7.128 2.844-0.576 4.68-0.396 5.508 0.396s0.539 2.34-0.721 4.5c1.117 0.612 1.98 1.188 2.592 1.728 0.648 0.54 1.08 0.54 0.9 1.548-0.359 0.9-1.26 2.196-2.844 3.888 2.988 1.044 3.061-1.26 3.816-0.252 0.719 0.972 1.08 3.492-0.9 4.176-1.98 0.72-3.492 0.396-6.553 2.231-3.096 1.872-7.811 3.204-10.871 7.524-3.023 4.355-3.637 13.32-6.264 16.56-2.664 3.168-4.969 3.276-9.541 2.448-4.572-0.9-12.455-5.724-17.711-7.596-5.293-1.872-10.297-0.937-13.645-3.528-3.385-2.592-5.473-6.516-6.408-11.952l-6.875 1.044c0.863 5.292 0.574 8.893-0.576 11.088-1.26 2.053 1.799 1.044-6.77 1.692-8.748 0.612-23.398 1.296-44.783 2.052 1.72-13.45 3.52-26.88 5.32-40.34z"/>
      <path stroke="#000" stroke-width=".036" stroke-miterlimit="10" d="m328.72 189.42c2.232-1.188 4.357-2.196 6.912-3.024 2.484-0.828 5.508-2.736 7.705-2.124 2.088 0.504 1.656 2.16 4.68 5.112 2.881 2.844 9.217 9.36 12.889 12.348 3.6 2.952 5.58 5.328 8.711 5.328 2.953-0.181 6.191-3.24 9.721-5.868 3.527-2.664 7.416-5.904 11.664-9.864-1.26-3.78-1.836-6.588-1.729-8.568 0.107-2.052 1.152-3.312 2.305-3.384 1.008-0.108 3.563 0.72 4.068 2.628 0.432 1.764-0.072 4.572-1.369 8.28 2.844-3.132 4.932-4.896 6.121-5.436 1.15-0.612 1.512 1.116 1.078 2.268-0.432 1.188-1.654 2.628-3.672 4.608 2.27-0.972 3.816-1.332 4.789-1.08 0.791 0.216 1.152 1.332 0.684 2.376-0.469 0.864-1.547 1.944-3.24 3.096 2.305 0.108 3.672 0.468 4.393 1.08 0.648 0.576 0.18 1.62-0.432 2.304-0.648 0.432-0.9-0.468-3.672 1.188-2.916 1.764-10.584 5.147-13.572 8.892-3.061 3.6-2.771 9.468-4.428 12.456-1.729 2.88-2.484 4.464-5.58 4.464-3.313-0.288-8.568-3.924-13.393-5.508-4.969-1.548-11.123-2.448-15.119-4.068-3.854-1.836-6.408-3.744-8.102-6.552-1.871-2.916-2.771-6.479-2.844-10.836-0.936 1.692-2.16 2.772-3.527 3.528-1.439 0.684-3.168 0.899-5.041 0.647-0.035-2.808-0.107-5.328-0.07-7.703-0.04-2.5 0.03-4.55 0.06-6.61z" fill="#E2B79C"/>
      <path stroke="#000" stroke-width=".036" stroke-miterlimit="10" d="m283.33 185.32c6.695 1.404 13.607 2.196 21.275 2.376 7.596 0.144 15.443-0.324 23.939-1.404-1.619 3.096-2.52 6.696-2.699 10.944-0.217 4.248 1.404 10.943 1.547 14.256 0.037 3.204-0.432 4.859-1.26 4.968l-47.195 1.404c1.44-10.84 2.91-21.68 4.39-32.55z" fill="#108632"/>
      <path stroke="#000" stroke-width=".036" stroke-miterlimit="10" d="m287.79 191.3c-0.359 1.224 0.432 2.556 1.764 2.952 1.369 0.432 2.773-0.252 3.133-1.476 0.396-1.224-0.396-2.556-1.764-2.952-1.36-0.43-2.77 0.25-3.13 1.48z"/>
      <path stroke="#000" stroke-width=".036" stroke-miterlimit="10" d="m292.83 195.76c-0.396 1.225 0.432 2.557 1.764 2.952 1.367 0.433 2.771-0.252 3.131-1.476 0.396-1.224-0.432-2.556-1.764-2.952-1.36-0.43-2.77 0.26-3.13 1.48z"/>
      <path stroke="#000" stroke-width=".036" stroke-miterlimit="10" d="m301.69 192.2c-0.359 1.224 0.432 2.556 1.801 2.952 1.332 0.432 2.734-0.252 3.131-1.476 0.359-1.224-0.432-2.556-1.799-2.952-1.33-0.43-2.74 0.25-3.13 1.48z"/>
      <path stroke="#000" stroke-width=".036" stroke-miterlimit="10" d="m306.01 201.16c-0.396 1.224 0.432 2.556 1.764 2.988 1.367 0.396 2.771-0.252 3.133-1.513 0.395-1.224-0.434-2.52-1.766-2.952-1.36-0.4-2.76 0.25-3.12 1.47z"/>
      <path stroke="#000" stroke-width=".036" stroke-miterlimit="10" d="m316.88 198.21c-0.395 1.224 0.396 2.556 1.764 2.952 1.369 0.432 2.773-0.252 3.133-1.477 0.359-1.224-0.432-2.556-1.764-2.951-1.37-0.43-2.77 0.25-3.13 1.48z"/>
      <path stroke="#000" stroke-width=".036" stroke-miterlimit="10" d="m312.34 190.83c-0.396 1.224 0.432 2.556 1.764 2.952 1.367 0.432 2.771-0.252 3.133-1.476 0.395-1.224-0.434-2.556-1.766-2.952-1.35-0.43-2.76 0.25-3.12 1.48z"/>
      <path stroke="#000" stroke-width=".036" stroke-miterlimit="10" d="m318.03 210.81c-0.396 1.225 0.396 2.557 1.764 2.988 1.369 0.396 2.773-0.252 3.133-1.476 0.359-1.225-0.432-2.557-1.764-2.988-1.36-0.39-2.77 0.25-3.13 1.48z"/>
      <path stroke="#000" stroke-width=".036" stroke-miterlimit="10" d="m309 211.53c-0.396 1.224 0.395 2.556 1.764 2.952 1.367 0.432 2.771-0.252 3.131-1.477 0.396-1.224-0.432-2.556-1.764-2.952-1.37-0.43-2.77 0.25-3.13 1.48z"/>
      <path stroke="#000" stroke-width=".036" stroke-miterlimit="10" d="m297.62 211.92c-0.359 1.225 0.432 2.557 1.801 2.952 1.332 0.396 2.736-0.252 3.131-1.476 0.361-1.225-0.432-2.557-1.799-2.952-1.37-0.42-2.77 0.22-3.13 1.48z"/>
      <path stroke="#000" stroke-width=".036" stroke-miterlimit="10" d="m298.7 203.79c-0.396 1.224 0.396 2.556 1.764 2.988 1.369 0.396 2.773-0.252 3.133-1.477 0.359-1.224-0.432-2.556-1.764-2.987-1.37-0.39-2.77 0.25-3.13 1.48z"/>
      <path stroke="#000" stroke-width=".036" stroke-miterlimit="10" d="m288.69 208.54c-0.396 1.224 0.396 2.556 1.764 2.988 1.369 0.396 2.771-0.252 3.133-1.477 0.359-1.224-0.432-2.556-1.764-2.987-1.36-0.39-2.77 0.26-3.13 1.48z"/>
      <path stroke="#000" stroke-width=".036" stroke-miterlimit="10" d="m282.75 212.9c-0.361 1.224 0.432 2.556 1.799 2.951 1.332 0.433 2.736-0.252 3.133-1.476 0.359-1.224-0.432-2.556-1.801-2.952-1.36-0.43-2.73 0.25-3.13 1.48z"/>
      <path stroke="#000" stroke-width=".036" stroke-miterlimit="10" d="m237.86 204.58l63.828-125.24c3.6 0.324 7.885 3.42 12.852 9.288 5.041 5.868 10.404 14.364 16.777 25.776 10.691 0.108 18.359 1.656 23.688 4.788 5.219 3.132 7.668 7.596 7.488 13.788 5.58-17.856 7.74-33.66 6.875-48.528-1.08-14.832-5.867-28.296-12.564-39.564-6.73-11.376-15.875-20.484-27.576-27.864 1.873-5.076 2.664-8.64 2.09-11.088-0.721-2.556-3.529-4.428-5.365-3.276-1.764 1.26-3.42 4.572-5.111 10.476-6.373-5.652-13.717-9.396-22.176-11.376-8.568-2.016-19.297-2.412-28.441-0.612-9.035 1.62-17.351 4.104-25.775 10.8-8.568 6.696-16.812 16.2-25.164 29.052 7.488-3.456 14.652-4.104 22.176-2.088 7.416 2.052 17.208 8.136 22.176 14.364 4.896 6.084 7.236 13.284 7.164 21.888 3.24-0.144 6.697 0 10.801 0.288 4.031 0.252 8.279 0.756 13.176 1.512l-59.004 121.93c0.66 1.87 1.34 3.78 2.06 5.69z"/>
      <path stroke="#000" stroke-width=".036" stroke-miterlimit="10" d="m227.96 34.695c4.752-7.452 10.404-13.645 17.1-18.576 6.696-5.004 14.508-9.072 22.751-11.088 8.102-2.088 17.713-2.664 25.777-1.188 8.064 1.44 15.264 4.536 22.176 9.576-6.373 2.772-12.42 7.668-18.576 14.688-6.191 7.02-14.184 20.412-18 27.252-3.889 6.696-5.58 10.944-5.076 12.888-0.973-9.396-3.672-16.488-8.388-21.852-4.788-5.328-13.464-8.028-19.764-9.9-6.34-2.016-12.24-2.52-18-1.8z" fill="#FB0F0C"/>
      <path stroke="#000" stroke-width=".036" stroke-miterlimit="10" d="m277.1 72.459c2.232-9.18 5.184-17.172 9-24.264 3.707-7.092 8.027-12.996 13.787-18 5.725-5.148 15.66-13.536 20.664-11.988 4.934 1.62 6.48 10.656 8.676 21.276 1.98 10.584 3.277 29.7 3.889 41.652 0.611 11.844 0.611 21.204 0 28.764-5.76-11.052-11.305-19.296-16.775-25.164-5.545-5.868-9.361-7.92-15.877-9.9-6.66-2.053-14.25-2.845-23.36-2.377z" fill="#fff"/>
      <path stroke="#000" stroke-width=".036" stroke-miterlimit="10" d="m337.33 109.9c0.072-20.088-0.434-36.396-1.512-50.04-1.117-13.644-5.58-25.272-5.076-30.852 0.432-5.472 3.203-5.292 7.486-2.088 4.213 3.132 13.068 11.916 17.678 20.664 4.535 8.64 8.244 18.324 9.574 30.852 1.297 12.456 0.469 26.748-2.088 43.452-2.664-2.808-6.154-5.256-10.475-7.2-4.4-2.05-9.54-3.6-15.59-4.79z" fill="#FB0F0C"/>
      <path stroke="#000" stroke-width=".036" stroke-miterlimit="10" d="m204.52 206.96c26.172-24.264 48.492-43.776 68.328-59.904 19.691-16.164 33.805-24.984 49.141-35.64 15.156-10.764 32.723-23.796 41.328-27.576 8.424-3.672 11.016-0.612 9.574 5.688-1.475 6.264-7.559 16.524-18.252 31.464 2.916 3.78 5.762 6.084 8.678 7.2 2.879 1.044 5.58-0.036 8.387-0.9 2.664-0.9 5.256-2.628 7.777-4.788-4.682 10.368-9.721 17.28-14.977 21.564-5.4 4.14-12.385 4.212-16.775 3.276-4.357-1.116-7.453-4.176-9.289-9.576-6.516 6.12-15.947 13.68-28.439 23.076-12.637 9.36-30.24 21.96-46.44 32.652-16.308 10.584-32.76 20.628-50.328 30.563l-11.412 5.4c0.89-7.49 1.79-14.98 2.69-22.5z"/>
      <path stroke="#000" stroke-width=".036" stroke-miterlimit="10" d="m206.94 209.08c15.408-14.256 30.492-27.612 45.828-40.752 15.264-13.212 31.463-26.712 45.539-37.44 14.076-10.872 26.713-19.116 38.053-26.676 11.305-7.668 25.848-18.72 28.764-18.576 2.592 0.288-0.252 8.028-12.564 19.764-12.527 11.592-43.271 35.892-61.127 49.428-17.928 13.356-30.888 20.88-45.252 30.888-14.4 9.972-27.684 19.404-40.428 28.729 0.39-1.77 0.79-3.57 1.19-5.37z" fill="#C61083"/>
      <path stroke="#000" stroke-width=".036" stroke-miterlimit="10" d="m206.04 215.67c16.704-9.972 33.084-20.268 49.716-31.176 16.741-10.98 35.639-23.976 49.463-34.128 13.537-10.296 21.996-18.216 31.752-26.964 9.686-8.784 20.449-18.936 26.064-25.2 5.4-6.336 7.596-10.296 6.588-12.276 1.477 1.224 1.729 3.276 0.9 6.3-0.9 2.916-1.477 5.472-6.012 11.7-4.789 6.3-12.168 16.596-21.564 25.74-9.359 9-18.107 16.128-34.164 28.188-16.309 12.06-44.712 31.896-62.316 43.416-17.64 11.305-31.536 19.297-42.516 24.265 0.68-3.28 1.37-6.56 2.09-9.87z" fill="#C61083"/>
      <path stroke="#000" stroke-width=".036" stroke-miterlimit="10" d="m352.23 124.88c1.078 2.376 2.879 4.032 5.398 5.112 2.521 0.972 6.912 1.512 9.576 1.188 2.592-0.432 4.355-1.404 5.688-3.312-3.852 6.984-7.738 11.736-11.662 14.4-3.961 2.52-8.785 2.124-11.988 1.188-3.313-1.008-5.904-3.204-7.777-6.876 3.56-3.89 7.16-7.78 10.76-11.7z" fill="#C61083"/>
      <path stroke="#000" stroke-width=".036" stroke-miterlimit="10" d="m267.34 180.24c1.08 2.304 5.543 2.448 13.787 0.288 8.281-2.268 19.693-6.48 35.064-13.176v3.276c4.213-4.176 7.705-6.516 10.477-7.164 2.736-0.648 2.699 1.368 6.012 3.276 3.348 1.836 8.855 6.012 13.465 7.812 4.428 1.692 8.818 2.484 13.176 2.376 2.375-2.268 4.68-5.004 6.912-8.064 2.158-3.132 4.248-6.588 6.264-10.512-2.844-3.456-4.285-6.3-4.465-8.676-0.145-2.556 1.549-5.472 3.564-5.688 1.871-0.108 4.428 1.584 7.813 5.076 2.592-1.404 4.391-1.8 5.398-1.188 0.938 0.504 1.225 2.052 0.576 4.5 1.297 0.18 2.197 0.576 2.988 0.9 0.648 0.216 1.369 0.252 1.332 1.224-0.107 0.936-0.539 2.448-1.584 4.536 3.133 0.144 2.557-2.088 3.529-1.368 1.008 0.756 2.051 3.024 0.395 4.284-1.691 1.26-3.24 1.404-5.652 4.032-2.41 2.7-6.516 5.328-8.207 10.368-1.619 5.04 0.396 13.824-1.188 17.676-1.621 3.78-3.781 4.571-8.389 5.076-4.645 0.504-13.572-1.836-19.152-2.089-5.615-0.252-10.115 2.089-14.111 0.576-3.961-1.512-7.092-4.644-9.576-9.576l-6.301 2.988c2.34 4.752 3.24 8.353 2.701 10.8-0.648 2.376 2.088 0.433-5.977 3.601-8.172 3.132-22.031 8.027-42.264 14.976-2.18-13.37-4.38-26.76-6.58-40.16z"/>
      <path stroke="#000" stroke-width=".036" stroke-miterlimit="10" d="m314.65 174.81c1.801-1.764 3.674-3.348 5.762-4.896 1.979-1.62 4.535-4.212 6.695-4.284 2.053-0.144 2.305 1.548 6.012 3.564 3.709 1.98 11.412 6.156 15.877 8.064 4.248 1.764 6.947 3.456 9.898 2.556 2.881-1.008 4.896-4.932 7.598-8.424 2.627-3.672 5.398-7.776 8.314-12.852-2.268-3.24-3.707-5.76-4.176-7.704-0.432-2.016 0.109-3.492 1.225-3.888 1.043-0.504 3.564-0.252 4.645 1.332 0.898 1.656 1.367 4.284 1.115 8.316 1.908-3.852 3.205-6.084 4.283-6.984 1.045-0.864 1.656 0.54 1.693 1.836-0.037 1.224-0.9 3.06-2.197 5.508 1.945-1.656 3.277-2.34 4.285-2.448 0.791-0.072 1.512 1.044 1.332 2.088-0.107 1.008-0.936 2.268-2.197 3.924 2.197-0.468 3.709-0.684 4.537-0.252 0.721 0.324 0.756 1.512 0.252 2.304-0.541 0.756-1.008-0.324-3.205 2.196-2.34 2.52-8.566 8.028-10.367 12.492-1.908 4.284 0.107 9.936-0.611 13.212-0.828 3.168-0.973 5.076-4.033 5.868-3.203 0.72-9.359-1.26-14.436-1.368-5.184-0.18-11.375 1.008-15.66 0.504-4.248-0.612-7.092-1.728-9.648-3.924-2.627-2.268-4.535-5.4-5.867-9.54-0.469 1.836-1.152 3.312-2.34 4.428-1.188 1.044-2.736 1.728-4.645 2.052-0.9-2.664-1.619-5.004-2.303-7.308-0.66-2.31-1.27-4.44-1.81-6.38z" fill="#E2B79C"/>
      <path stroke="#000" stroke-width=".036" stroke-miterlimit="10" d="m270.04 184.1c6.84-0.612 13.717-1.872 21.025-3.924 7.307-2.16 14.615-4.752 22.463-8.316-0.684 3.528-0.432 7.056 0.611 11.268 1.01 4.176 4.609 9.972 5.652 13.212 0.973 2.988 1.045 4.788 0.217 5.112l-44.7 15.05c-1.73-10.8-3.49-21.6-5.26-32.4z" fill="#108632"/>
      <path stroke="#000" stroke-width=".036" stroke-miterlimit="10" d="m276.02 188.49c0 1.296 1.152 2.34 2.557 2.34 1.439 0 2.592-1.044 2.592-2.34 0-1.26-1.152-2.304-2.592-2.304-1.41-0.01-2.56 1.04-2.56 2.3z"/>
      <path stroke="#000" stroke-width=".036" stroke-miterlimit="10" d="m282.14 191.3c0 1.296 1.152 2.34 2.557 2.34s2.557-1.044 2.557-2.34c0-1.26-1.152-2.304-2.557-2.304s-2.56 1.04-2.56 2.3z"/>
      <path stroke="#000" stroke-width=".036" stroke-miterlimit="10" d="m289.59 185.32c0 1.296 1.152 2.34 2.555 2.34 1.441 0 2.594-1.044 2.594-2.34s-1.152-2.34-2.594-2.34c-1.39 0-2.55 1.04-2.55 2.34z"/>
      <path stroke="#000" stroke-width=".036" stroke-miterlimit="10" d="m296.33 192.66c0 1.26 1.15 2.304 2.555 2.304s2.557-1.044 2.557-2.304c0-1.296-1.152-2.34-2.557-2.34s-2.55 1.05-2.55 2.34z"/>
      <path stroke="#000" stroke-width=".036" stroke-miterlimit="10" d="m305.86 186.65c0 1.296 1.115 2.34 2.557 2.34 1.404 0 2.555-1.044 2.555-2.34 0-1.26-1.15-2.304-2.555-2.304-1.44 0-2.56 1.04-2.56 2.3z"/>
      <path stroke="#000" stroke-width=".036" stroke-miterlimit="10" d="m299.38 180.93c0 1.26 1.117 2.304 2.557 2.304 1.404 0 2.557-1.044 2.557-2.304 0-1.296-1.152-2.34-2.557-2.34-1.44 0-2.56 1.04-2.56 2.34z"/>
      <path stroke="#000" stroke-width=".036" stroke-miterlimit="10" d="m310.62 198.39c0 1.296 1.152 2.341 2.557 2.341 1.439 0 2.592-1.045 2.592-2.341 0-1.26-1.152-2.304-2.592-2.304-1.41-0.01-2.56 1.04-2.56 2.3z"/>
      <path stroke="#000" stroke-width=".036" stroke-miterlimit="10" d="m302.19 201.7c0 1.296 1.152 2.34 2.557 2.34s2.555-1.044 2.555-2.34-1.15-2.304-2.555-2.304-2.55 1-2.55 2.3z"/>
      <path stroke="#000" stroke-width=".036" stroke-miterlimit="10" d="m291.43 205.37c0 1.296 1.152 2.34 2.557 2.34 1.402 0 2.555-1.044 2.555-2.34s-1.152-2.34-2.555-2.34c-1.4 0-2.55 1.05-2.55 2.34z"/>
      <path stroke="#000" stroke-width=".036" stroke-miterlimit="10" d="m290.06 197.31c0 1.261 1.152 2.305 2.594 2.305 1.402 0 2.555-1.044 2.555-2.305 0-1.295-1.152-2.339-2.555-2.339-1.43-0.01-2.58 1.03-2.58 2.33z"/>
      <path stroke="#000" stroke-width=".036" stroke-miterlimit="10" d="m281.89 204.76c0 1.296 1.152 2.34 2.557 2.34 1.439 0 2.592-1.044 2.592-2.34s-1.152-2.34-2.592-2.34c-1.41 0-2.56 1.04-2.56 2.34z"/>
      <path stroke="#000" stroke-width=".036" stroke-miterlimit="10" d="m277.5 210.63c0 1.296 1.15 2.34 2.555 2.34s2.557-1.044 2.557-2.34-1.152-2.34-2.557-2.34-2.56 1.04-2.56 2.34z"/>
      <path stroke-linejoin="round" d="m188.72 186.11c0 33.516 7.992 66.239 32.652 66.239s77.292-36.323 77.292-69.839c0-33.48-21.492-61.092-46.153-61.092-24.62 0-63.79 31.21-63.79 64.69z" stroke="#000" stroke-linecap="round" stroke-miterlimit="10" stroke-width=".9978"/>
      <path stroke-linejoin="round" d="m230.67 188.2c4.789 0 8.676 5.564 8.676 12.42 0 6.855-3.887 12.42-8.676 12.42s-8.676-5.564-8.676-12.42c0.01-6.86 3.89-12.42 8.68-12.42" stroke="#000" stroke-linecap="round" stroke-miterlimit="10" stroke-width=".036" fill="#fff"/>
      <path stroke-linejoin="round" d="m232.46 185.54c-0.648-3.78-0.252-9.324 1.188-16.776 1.512-7.524 4.428-20.376 7.488-27.864 2.844-7.56 6.192-13.212 9.9-17.1 6.084 0.828 11.376 2.232 15.876 4.212 4.428 1.944 7.703 4.068 11.088 7.488 3.383 3.348 6.984 8.46 9.287 12.564 2.197 3.96 3.492 7.812 3.889 11.412-9.469 4.32-18.18 9.216-26.676 14.976-8.604 5.76-16.308 11.952-23.94 19.152-0.72-2.304-1.728-3.96-3.024-5.364-1.42-1.37-3.11-2.27-5.09-2.7z" stroke="#000" stroke-linecap="round" stroke-miterlimit="10" stroke-width=".036" fill="#FB0F0C"/>
      <path stroke-linejoin="round" d="m228.86 185.82c-0.468-2.808-0.072-7.452 0.9-14.076 0.972-6.732 2.34-17.676 5.076-25.488 2.664-7.848 6.408-14.832 11.088-21.24-7.74 1.008-14.976 3.672-21.852 8.388-6.948 4.572-15.336 14.58-19.476 19.476-4.176 4.788-6.12 8.028-5.688 9.576 3.348 4.572 6.948 8.964 11.088 13.464 4.14 4.428 8.532 8.82 13.464 13.176-0.936 0.504-0.936 0.504 0 0 0.86-0.58 2.66-1.62 5.4-3.28z" stroke="#000" stroke-linecap="round" stroke-miterlimit="10" stroke-width=".036" fill="#F7F619"/>
      <path stroke-linejoin="round" d="m220.76 191.51c-1.692-1.044-4.356-3.492-8.388-7.776s-9.216-10.08-15.552-17.676c-2.232 3.06-3.6 6.948-4.5 11.664-0.936 4.788-0.864 10.332-0.612 16.488 0.144 5.977 0.792 14.688 1.8 19.477 1.008 4.716 2.124 7.56 3.888 8.676l22.464-14.977c-1.224-2.771-1.584-5.472-1.476-8.1 0.11-2.66 0.9-5.25 2.38-7.77z" stroke="#000" stroke-linecap="round" stroke-miterlimit="10" stroke-width=".036" fill="#1D0E82"/>
      <path stroke-linejoin="round" d="m243.22 195.4c3.672-3.564 9.288-7.812 17.388-12.888 8.064-5.148 18.072-10.944 30.564-17.676 3.096 5.04 4.393 10.404 3.887 16.776-0.611 6.228-2.807 13.356-7.162 20.7-4.43 7.38-10.584 14.867-18.9 23.039-5.869-4.031-10.909-7.668-15.265-11.052-4.392-3.492-7.992-6.443-10.8-9.288-0.072-1.691-0.072-3.168 0-4.823 0.07-1.66 0.07-3.21 0.28-4.79z" stroke="#000" stroke-linecap="round" stroke-miterlimit="10" stroke-width=".036" fill="#1D0E82"/>
      <path stroke-linejoin="round" d="m220.47 209.8l-23.652 16.164c1.044 5.112 2.952 9.504 6.264 13.176 3.24 3.637 8.136 7.236 12.888 8.712 4.644 1.368 9.396 1.261 14.688-0.323l-1.188-30.853c-2.52-0.432-4.572-1.224-6.012-2.376-1.51-1.15-2.56-2.7-2.99-4.5z" stroke="#000" stroke-linecap="round" stroke-miterlimit="10" stroke-width=".036" fill="#FB0F0C"/>
      <path stroke-linejoin="round" d="m234.26 216.1c0.288 0.288 1.08-0.216 2.376-1.512 1.296-1.368 3.096-3.42 5.4-6.3l22.176 19.476c-5.436 5.761-10.584 10.152-15.588 13.177-5.04 2.987-9.828 4.535-14.364 4.788-0.01-9.88-0.01-19.74-0.01-29.64z" stroke="#000" stroke-linecap="round" stroke-miterlimit="10" stroke-width=".036" fill="#F7F619"/>
      <path stroke-linejoin="round" d="m155.24 181.25c0.252-0.972-0.036 2.052-1.152 9.612-1.152 7.452-4.464 27.972-5.364 35.027-1.008 6.912-0.036 2.196 0 6.66-0.072 4.464-0.072 10.908-0.144 19.729l40.536-0.181c0.504-12.491 0.144-24.371-1.476-36.468-1.656-12.06-4.176-23.652-7.956-35.352-8.14 0.32-16.28 0.65-24.45 0.97z" stroke="#000" stroke-linecap="round" stroke-miterlimit="10" stroke-width=".036"/>
      <path stroke-linejoin="round" d="m156.72 182.4c-0.252 3.312-0.792 8.748-1.62 16.453-0.9 7.739-3.06 20.663-3.42 29.628-0.468 8.928-0.144 16.416 0.972 23.292l34.524-0.648c0.288-8.1 0.144-16.38-0.828-25.416-1.008-9.18-3.276-20.844-4.716-28.332-1.548-7.38-2.772-12.492-4.068-15.624-6.94 0.22-13.89 0.44-20.83 0.65z" stroke="#000" stroke-linecap="round" stroke-miterlimit="10" stroke-width=".036" fill="#17067B"/>
      <path stroke-linejoin="round" d="m149.26 106.88c-11.304-0.9-21.312-1.296-30.564-1.188-9.216 0.036-17.352 0.72-24.552 1.764-2.304-1.728-4.86-2.592-7.524-2.988-2.808-0.432-6.3-0.324-8.676 0.9-2.556 1.26-6.3 4.608-5.688 6.3 0.756 1.512 3.924 2.556 9.9 2.988-1.62 1.26-2.628 2.304-3.024 2.988-0.468 0.72-0.216 1.08 0.612 1.224-1.008 1.404-1.512 2.448-1.512 3.276 0 0.756 0.504 1.26 1.512 1.512-0.936 1.584-1.08 2.736-0.288 3.888 0.756 1.008 2.16 2.736 4.788 2.412 2.664-0.396 7.596-3.564 10.476-4.5 2.52-1.08 2.88-1.476 5.4-1.188 2.52 0.324 4.104 2.196 9.9 2.988 5.904 0.756 17.604 1.152 24.552 1.188 6.732-0.072 12.024-0.72 15.876-1.8-1.656 2.7-1.8 4.5-0.576 5.4 1.26 0.9 3.852 0.9 8.064 0-2.484 2.484-4.536 5.58-6.3 9.288-1.728 3.672-3.168 7.92-4.176 12.888-1.728 0-3.276 0.324-4.5 0.576-1.224 0.216-1.8-0.216-2.988 1.224-1.332 1.332-3.852 4.644-4.788 7.164-1.008 2.448-1.44 5.976-0.9 7.524 0.504 1.44 2.772 1.656 3.888 1.476 1.008-0.216 1.656-1.116 2.088-2.7 1.692 1.908 2.844 2.664 3.888 2.412 0.9-0.396 1.548-1.656 1.8-4.212 0.612 2.196 1.584 3.096 3.312 2.412 1.62-0.72 3.816-2.772 6.588-6.3-1.152 4.644-1.8 8.388-2.088 11.376-0.36 2.952-0.216 5.004 0.288 6.3 4.212 1.584 8.604 2.232 13.176 2.088 4.572-0.252 9.216-1.296 14.076-3.276-1.152-9.576-1.08-18.828 0.612-28.152 1.584-9.432 6.3-20.844 9-27.576 2.592-6.804 7.056-9.108 6.876-12.888-0.324-3.888-3.024-7.236-8.388-10.188 0.36-2.556 1.512-5.256 3.6-8.1 2.052-2.916 7.668-5.58 8.676-8.964 0.9-3.528-2.088-9.828-3.276-11.7-1.26-1.8-2.664-1.728-4.212 0.612-1.152-1.152-0.504-2.484 1.8-3.6 2.34-1.152 6.192-2.484 11.988-3.6-4.104-0.36-5.76-1.008-5.112-1.8 0.72-1.008 8.352-2.376 9-3.276 0.468-0.828-6.336-0.684-5.976-1.8 0.36-1.332 8.136-3.96 7.776-5.4-0.72-1.512-10.944-2.16-10.8-3.312 0.252-1.26 10.836-2.592 12.312-3.6 1.224-1.08-3.6-1.404-4.212-2.376-0.576-1.044 1.476-2.52 0.612-3.6-1.044-1.224-6.984-1.944-6.3-2.988 0.648-1.08 11.124-1.944 10.476-2.988-0.792-1.044-9.72-3.168-14.976-3.024-5.436-0.036-13.248 1.908-16.776 3.312-3.564 1.44-4.86 2.988-4.176 5.076-0.576-4.464-0.576-8.604 0-12.564 0.54-3.996 1.26-7.56 3.276-11.088 1.98-3.636 4.644-7.128 8.388-10.476l-9.288-1.8c-2.34 2.232-4.284 5.58-5.976 10.188-1.8 4.644-3.384 11.952-4.212 17.064-0.9 4.932-1.152 8.928-0.9 12.276-2.556-1.008-4.248-0.756-5.364 0.612-1.116 1.404-0.828 4.5-1.224 7.488-0.468 2.808-1.008 6.048-1.476 9.576-4.464 3.312-6.984 5.58-8.1 7.2-1.08 1.44-0.108 1.44 1.8 2.088 1.836 0.612 4.932 1.44 9.288 2.088-0.072 3.096-0.036 6.948-0.288 11.988-0.144 4.968-0.576 10.728-0.9 17.676-4.428-0.504-7.884-0.396-10.512 0.324-2.63 0.69-4.32 1.99-5.08 3.9z" stroke="#000" stroke-linecap="round" stroke-miterlimit="10" stroke-width=".036"/>
      <path stroke-linejoin="round" d="m179.72 40.167c1.152-1.872 3.816-3.312 7.848-4.464 4.14-1.26 12.42-2.016 16.38-2.268 3.816-0.252 7.632 0.396 6.444 0.972-1.404 0.432-12.6 1.332-14.004 2.016-1.404 0.576 5.688 1.224 5.58 1.8-0.36 0.504-7.632 0.972-6.804 1.404 0.864 0.324 11.052 0.72 12.096 1.044 0.828 0.18-6.804 0.252-6.516 0.792 0.324 0.54 8.1 1.836 8.352 2.628 0.108 0.648-7.488 1.296-7.236 1.656 0.216 0.18 8.892-0.036 8.82 0.324-0.216 0.324-8.1 1.368-9.612 2.016-1.548 0.54 0.864 0.9 0.432 1.476-0.576 0.432-4.644 0.792-3.312 1.476 1.296 0.648 10.476 1.764 11.592 2.52 0.972 0.648-4.716 0.972-5.112 1.512-0.504 0.288 2.916 0.684 2.772 1.044-0.252 0.36-2.016 1.224-3.492 1.476-1.476 0.145-1.98-0.324-4.968-0.432-3.024-0.18-7.38-0.54-13.068-0.792-1.152-3.348-1.656-5.76-1.656-7.236 0.072-1.584 1.908-1.116 1.764-1.656-0.36-0.612-3.276-0.9-3.6-1.404-0.324-0.684 1.512-1.188 1.332-1.656-0.396-0.432-3.06-0.54-3.42-0.864-0.432-0.468 1.116-1.008 1.044-1.476-0.216-0.54-1.44-0.9-1.728-1.224-0.31-0.36-0.23-0.54 0.09-0.684z" stroke="#000" stroke-linecap="round" stroke-miterlimit="10" stroke-width=".036" fill="#A16121"/>
      <path stroke-linejoin="round" d="m187.68 62.199c0.576 1.116 1.332 2.196 2.268 3.384 0.864 1.188 1.26 3.312 3.132 3.6 1.8 0.144 6.588-2.016 7.56-2.448 0.792-0.54-2.664-0.036-2.592-0.432-0.072-0.396 2.556-1.548 2.592-1.908-0.036-0.432-2.988-0.54-2.448-0.72 0.504-0.288 2.268-0.647 5.436-0.936-2.556-0.18-5.148-0.252-7.776-0.36-2.74-0.072-5.37-0.18-8.17-0.18z" stroke="#000" stroke-linecap="round" stroke-miterlimit="10" stroke-width=".036" fill="#A16121"/>
      <path stroke-linejoin="round" d="m186.34 62.379l-5.904-0.108c-0.036 1.512-0.648 3.132-1.836 4.716-1.332 1.548-3.636 3.96-5.4 4.896-1.836 0.864-3.924 0.756-5.148 0.504-1.26-0.396-1.692-1.116-2.268-2.448-0.612-1.404-1.152-4.428-1.476-5.472-0.432-1.08-0.828-1.368-1.044-0.864-3.924 2.016-6.048 3.564-6.516 4.788-0.54 1.152 2.052 1.584 3.744 2.268 1.728 0.54 3.852 1.044 6.516 1.368l-0.18 2.448c0.324 1.116 1.332 1.656 3.42 1.476 1.944-0.216 6.084-1.332 8.532-2.52 2.34-1.224 4.392-4.572 5.472-4.788 0.936-0.288 1.044 1.332 0.612 3.06-0.504 1.62-2.7 4.176-3.384 6.696-0.756 2.448-0.504 4.572-1.044 8.028-0.756 3.348-1.944 10.152-2.88 12.204-0.936 1.836-1.944 1.404-2.628-0.612-0.684-2.088-1.152-9.036-1.836-11.412-0.936-2.52-2.484-1.8-3.276-3.132-0.792-1.368-1.296-3.024-1.512-4.968l-1.116-0.432c-0.324 3.528-0.504 7.236-0.54 10.98-0.18 3.816-0.36 7.74 0 11.484 0.144 3.708 0.288 8.172 1.836 10.044 1.62 1.584 4.5 1.332 7.668-0.18 3.096-1.62 8.028-6.336 10.62-9.145 2.304-2.952 2.124-5.76 3.924-8.028 1.836-2.34 5.292-3.564 6.912-5.472 1.512-1.944 2.052-3.888 2.16-6.12-0.108-2.376-1.152-6.552-2.16-7.668-1.08-1.152-2.376-0.864-4.032 0.864-0.684-1.908-1.116-3.06-1.296-3.996-0.252-0.9-0.252-1.26 0-1.224-1.692-1.296-3.024-2.376-3.996-3.636-0.98-1.261-1.63-2.413-1.92-3.601z" stroke="#000" stroke-linecap="round" stroke-miterlimit="10" stroke-width=".036" fill="#E2B79C"/>
      <path stroke-linejoin="round" d="m181.56 73.467c-0.504 1.26-1.692 2.268-3.564 3.024-1.98 0.756-4.5 1.26-7.848 1.512-0.576 1.116-0.432 2.16 0.288 3.132 0.756 0.828 3.132 1.116 4.068 2.52 0.684 1.404 0.18 5.868 0.864 6.012 0.684-0.036 2.52-3.636 3.42-5.508 0.792-1.944 0.72-3.852 1.296-5.58 0.42-1.836 0.96-3.492 1.47-5.112z" stroke="#000" stroke-linecap="round" stroke-miterlimit="10" stroke-width=".036" fill="#fff"/>
      <path stroke-linejoin="round" d="m164.92 62.163c-0.54-2.016-0.288-3.312 0.072-5.832 0.288-2.664 0.864-7.596 1.584-9.504 0.612-1.908 1.548-1.656 2.268-1.728 0.576-0.252 0.648-0.396 1.476 0.972 0.756 1.404 2.916 4.032 3.132 7.308 0.072 3.204-1.584 9.216-2.448 11.772-1.008 2.412-1.944 3.24-2.952 2.772-1.11-0.54-2.66-3.852-3.13-5.76z" stroke="#000" stroke-linecap="round" stroke-miterlimit="10" stroke-width=".036" fill="#7FC0DB"/>
      <path stroke-linejoin="round" d="m180.12 7.983c-0.468 0.612-1.008 1.152-1.332 1.908-0.468 0.612-0.72 1.44-1.044 2.196l5.94 2.268c0.684-1.08 1.296-1.98 1.836-2.7 0.504-0.72 0.936-1.404 1.296-1.764-2.25-0.612-4.48-1.26-6.71-1.908z" stroke="#000" stroke-linecap="round" stroke-miterlimit="10" stroke-width=".036" fill="#F88011"/>
      <path stroke-linejoin="round" d="m177.49 13.635c-0.432 0.72-0.648 1.26-0.936 2.016-0.324 0.72-0.432 1.26-0.612 2.016l5.04 1.728c0.18-0.9 0.576-1.656 0.792-2.268 0.18-0.612 0.576-1.296 0.792-1.656l-5.07-1.836z" stroke="#000" stroke-linecap="round" stroke-miterlimit="10" stroke-width=".036" fill="#F88011"/>
      <path stroke-linejoin="round" d="m149.37 108.75c-3.888-0.72-9.396-1.008-16.668-1.152-7.452-0.108-20.088 0.036-26.784 0.432-6.66 0.18-10.836 0.684-12.816 1.116-1.368-1.908-3.42-2.988-6.3-3.24-2.988-0.252-9.288 0.684-10.98 1.692-1.764 0.936-1.296 2.808 0.576 3.816 1.872 0.828 7.704 0.612 10.548 1.692 2.664 1.044 5.328 3.852 5.652 4.68 0.252 0.576-3.168-1.008-3.852-0.432-0.72 0.54-0.684 2.844-0.324 4.14 0.252 1.188 0.9 3.132 2.088 3.456 1.152 0.252 2.988-1.584 4.932-1.764 1.836-0.252 3.204-0.288 6.192 0.324 2.988 0.504 6.948 2.34 11.448 2.988 4.428 0.504 8.568 0.36 14.76 0.396 6.048-0.036 13.104-0.252 21.456-0.504-0.468-1.152-0.756-3.24-0.72-6.12 0.03-3.01 0.24-6.75 0.78-11.54z" stroke="#000" stroke-linecap="round" stroke-miterlimit="10" stroke-width=".036" fill="#E2B79C"/>
      <path stroke-linejoin="round" d="m87.525 118.18c-1.152-1.116-2.232-1.764-3.384-1.944-1.188-0.252-3.132 0.216-3.456 0.576-0.432 0.288 0.144 1.044 1.044 1.44 0.9 0.252 3.096 0.468 4.104 0.648 0.9 0.108 1.224 0.288 1.116 0.396 0.18-0.37 0.36-0.73 0.576-1.13z" stroke="#000" stroke-linecap="round" stroke-miterlimit="10" stroke-width=".036" fill="#E2B79C"/>
      <path stroke-linejoin="round" d="m85.581 119.69c-1.476-0.288-2.628-0.288-3.6 0-1.116 0.18-2.016 1.044-2.268 1.62-0.252 0.54-0.396 1.476 0.972 1.692 1.332 0.108 3.456-0.288 6.768-1.044l-0.252-2.16h0c-0.54-0.04-1.08-0.07-1.62-0.11z" stroke="#000" stroke-linecap="round" stroke-miterlimit="10" stroke-width=".036" fill="#E2B79C"/>
      <path stroke-linejoin="round" d="m87.849 123c-3.024-0.108-5.04 0.216-6.048 0.828-1.044 0.504-1.152 2.16-0.324 2.88 0.756 0.648 3.168 1.476 4.608 1.368 1.404-0.216 2.376-0.972 3.456-2.412-0.648-0.468-1.152-0.972-1.368-1.368-0.288-0.47-0.396-0.9-0.324-1.3z" stroke="#000" stroke-linecap="round" stroke-miterlimit="10" stroke-width=".036" fill="#E2B79C"/>
      <path stroke-linejoin="round" d="m164.71 128.22c-3.276 1.764-6.156 4.86-8.784 9.288-2.7 4.428-4.86 9.972-6.876 17.028 2.196 0.828 4.032 1.764 5.508 2.52 1.476 0.828 2.484 1.476 3.168 2.232 1.872-3.132 3.78-6.156 6.12-9.504 2.232-3.456 5.904-7.524 7.416-10.26 1.404-2.772 2.592-4.104 1.476-5.94-1.13-1.98-3.76-3.64-8.04-5.37z" stroke="#000" stroke-linecap="round" stroke-miterlimit="10" stroke-width=".036" fill="#E2B79C"/>
      <path d="m140.08 157.92c-2.196 3.744-3.456 6.696-3.924 8.856-0.432 2.124 0.648 3.924 1.152 4.032 0.432-0.144 0.468-1.728 1.476-3.924 0.9-2.268 3.312-7.02 4.032-8.856 0.612-1.8 0.612-2.484 0-1.908l-2.74 1.8z" fill="#E2B79C"/>
      <path d="m145.77 157.38c-0.972 0.468-2.628 2.628-3.168 4.536-0.684 1.764-0.72 4.788-0.54 6.156 0.108 1.224 0.792 1.764 1.368 1.476 0.468-0.324 0.648-1.728 1.512-3.384 0.72-1.764 3.024-5.4 3.168-6.876 0.07-1.52-1.4-2.38-2.34-1.92z" fill="#E2B79C"/>
      <path d="m150.85 159.08c-1.044 0.864-1.836 4.068-2.232 5.724-0.288 1.512-0.18 3.204 0.324 3.276 0.36-0.072 1.044-1.836 1.908-3.204 0.756-1.476 2.808-4.212 2.844-5.148-0.03-1.12-2.09-1.48-2.84-0.65z" fill="#E2B79C"/>
      <path stroke-linejoin="round" d="m157.51 130.42c-1.188 0.36-2.268 0.468-3.384 0.324-1.188-0.18-2.52 1.296-3.168-1.26-0.684-2.736-1.152-10.44-0.828-14.508 0.216-4.068-0.216-7.524 2.304-9.396 2.52-1.944 6.588-2.484 12.6-1.908 0.468 3.492 1.476 5.94 2.736 7.632 1.26 1.548 2.916 2.196 4.968 2.088 1.908-0.072 4.068-1.08 6.768-2.736 2.628-1.728 5.652-4.5 9.072-7.92 2.412 0.684 4.248 1.728 5.508 3.276 1.188 1.548 2.412 3.528 2.016 5.796-0.576 2.088-2.988 3.672-4.752 7.092-1.8 3.42-4.068 7.596-5.832 13.212-2.016 5.58-4.248 11.88-5.292 19.872-0.972 7.956-1.224 16.74-0.612 27.18-3.024 1.476-6.372 2.268-10.584 2.52-4.248 0.252-8.82-0.18-14.256-1.152 0.108-5.22 0.576-9.432 1.692-13.212 1.044-3.708 2.412-5.22 4.644-9 2.052-3.996 5.652-10.728 8.028-14.364 2.448-3.636 4.248-5.76 5.94-7.488 1.404-1.8 3.132-2.376 2.844-3.276-0.468-1.008-3.384-1.188-4.86-2.34-1.44-1.26-2.376-4.032-3.924-4.86-1.836-0.9-4.104-0.972-6.12-0.216-1.99 0.74-3.83 2.28-5.52 4.66z" stroke="#000" stroke-linecap="round" stroke-miterlimit="10" stroke-width=".036" fill="#108632"/>
      <path stroke-linejoin="round" d="m94.689 216.78c-7.524-0.72-15.156-1.044-23.436-1.116-8.244-0.144-19.26 0.108-25.848 0.756-6.768 0.648-11.268 1.548-14.04 2.988-0.612-0.684-1.008-1.116-1.584-1.296-0.576-0.252-1.116-0.252-1.62 0l-0.288-3.78c2.088 0.252 3.528 0 4.86-0.756 1.224-0.864 3.6-2.556 2.412-3.96-1.296-1.476-6.84-4.392-9.972-4.716-3.276-0.396-8.172 1.26-9.144 2.628-1.008 1.368 0.072 3.096 3.24 5.472-0.756 0.972-1.116 1.98-1.08 3.024 0.036 0.972 0.432 1.979 1.332 3.023-3.492 0.072-6.048 2.628-7.812 7.524-1.728 4.968-2.304 10.836-2.7 21.888-0.576 10.98-0.756 25.309-0.54 43.561-3.888 1.764-6.264 4.859-7.524 9.432-1.296 4.536-1.26 12.204 0.252 17.712 1.44 5.364 3.996 11.052 8.64 14.724 4.536 3.673 13.14 6.48 18.864 7.164 5.724 0.576 10.62-0.611 15.084-3.563 0.252 0.359 0.972 0.684 2.16 0.972 1.224 0.288 2.7 0.433 4.824 0.576-0.612 5.436 0.828 11.556 4.86 18.648 3.96 7.092 10.116 19.26 18.612 23.579 8.352 4.141 21.78 5.473 31.248 1.513 9.432-4.141 17.46-12.456 24.768-25.632 11.34 2.016 22.572 3.348 34.524 4.14 11.88 0.684 24.876 0.288 36.36 0.36 11.34-0.036 23.004 0.18 31.536-0.181 8.316-0.323 14.508-1.151 18.576-2.088-1.548 5.977 0 11.448 4.5 16.416 4.428 4.933 14.581 10.908 22.391 13.212 7.85 2.196 16.992 2.628 24.229 0.181 7.164-2.629 14.148-9.937 18.324-15.265 4.031-5.399 5.867-10.8 5.652-16.596 5.328-0.432 11.879 0.18 19.943 1.691 8.029 1.549 17.281 3.853 28.045 7.345-1.945-4.212-2.701-7.92-2.701-11.124 0.037-3.313 0.973-5.977 2.953-8.28l-11.844-1.152c4.859-4.14 8.314-8.928 11.051-14.508 2.592-5.76 5.041-14.04 4.572-18.864-0.611-4.787-3.275-7.56-7.561-9.432-4.355-1.979-10.223-2.736-18.035-2.268 1.691-1.836 2.771-5.004 3.24-9.648 0.432-4.716 0.252-10.62-0.541-18.107 3.602-1.98 6.373-5.292 8.605-9.792 2.123-4.681 4.211-12.601 4.318-17.353-0.07-4.86-1.512-8.496-4.031-10.764-2.557-2.196-6.191-3.061-11.053-2.448-1.188-1.656-3.563-2.916-7.271-3.78-3.707-0.899-8.604-1.403-14.832-1.512 2.34-3.996 2.34-7.02 0-9.216-2.447-2.196-7.813-4.284-14.291-3.78-6.625 0.432-16.74 4.824-24.516 6.229-7.85 1.296-17.209 0.647-21.816 1.512-4.645 0.72-6.625 1.728-5.94 3.023-3.528-0.107-13.932-0.144-31.788-0.252-18.036-0.144-42.552-0.216-74.916-0.359-1.728-4.536-3.384-8.137-5.112-10.944-1.764-2.844-3.564-4.752-5.4-5.868 1.8-10.403 3.564-19.08 5.148-26.568 1.512-7.524 2.988-13.32 4.284-17.928-6.876-0.792-12.78-0.468-18 1.368-5.292 1.728-5.868 0.432-13.248 9.18-7.45 8.84-17.57 22.91-30.921 43.07z" stroke="#000" stroke-linecap="round" stroke-miterlimit="10" stroke-width=".036"/>
      <path stroke-linejoin="round" d="m152.29 165.27c-4.536-0.36-8.388 0.072-12.24 1.296-3.888 1.116-4.824 0.108-10.296 5.868-5.58 5.76-17.424 20.952-22.464 28.476-5.112 7.416-7.668 12.456-7.812 15.66-0.252 0.288 1.188 0.899 4.32 1.691s7.848 1.908 14.292 3.204c0.9-4.716 3.096-10.008 6.192-16.02 3.168-6.156 7.848-13.248 12.672-20.016 4.72-6.81 9.65-13.39 15.34-20.16z" stroke="#000" stroke-linecap="round" stroke-miterlimit="10" stroke-width=".036" fill="#D0CCC8"/>
      <path stroke-linejoin="round" d="m124.28 220.71c2.232-0.036 4.248 0.216 5.904 0.756 1.62 0.468 3.024 1.225 4.068 2.269l-10.8 0.359c0.25-1.12 0.54-2.24 0.83-3.39z" stroke="#000" stroke-linecap="round" stroke-miterlimit="10" stroke-width=".036" fill="#D0CCC8"/>
      <path stroke-linejoin="round" d="m143.94 213.54l-7.812 6.229c-2.124-0.324-4.104-0.576-5.94-0.757-1.98-0.252-3.636-0.287-5.364-0.396 2.412-9.612 5.508-17.82 9.432-25.056 3.78-7.236 12.24-20.124 13.716-18.108 1.404 2.088-0.252 11.952-5.112 30.168-1.944-0.756-3.78 0-5.904 1.872-2.124 1.836-6.084 8.1-6.48 9.612-0.54 1.403 2.34 0.323 3.78-0.757 1.476-1.224 2.988-4.787 4.824-5.832 1.656-1.008 3.456-1.115 5.4-0.18-0.19 1.06-0.37 2.14-0.55 3.22z" stroke="#000" stroke-linecap="round" stroke-miterlimit="10" stroke-width=".036" fill="#C0C0C0"/>
      <path stroke-linejoin="round" d="m269.5 225.42c-0.469-0.756 2.016-1.26 5.652-1.512 3.6-0.324 10.008 0.072 15.912-0.756 5.795-1.116 13.248-4.104 18.863-5.076 5.543-1.008 10.943-1.477 14.256-0.576 3.168 0.9 5.111 3.96 4.859 5.832-0.432 1.656-1.656 4.104-6.73 4.716-5.293 0.54-16.164-0.972-23.725-0.936s-16.129 1.584-20.988 1.332c-4.99-0.41-7.69-2.25-8.09-3.01z" stroke="#000" stroke-linecap="round" stroke-miterlimit="10" stroke-width=".036" fill="#128080"/>
      <path stroke-linejoin="round" d="m96.993 218.4c-7.812-0.145-15.408-0.324-23.184-0.396-7.884-0.18-15.876-0.468-23.148-0.18s-13.788 0.864-19.944 1.872l0.54 8.136c1.62 0.612 3.636 1.692 6.192 3.384 2.556 1.513 6.768 2.628 8.892 6.408 1.98 3.816 2.916 9.036 2.952 16.2 1.332-2.628 4.248-5.04 8.892-7.524 4.716-2.52 12.024-6.155 18.864-7.164 6.732-1.008 15.876-0.432 21.024 0.757 4.968 1.115 9.648 5.22 8.604 5.651-1.224 0.288-9.72-3.563-15.624-3.78-6.048-0.359-13.068-0.504-19.656 2.089-6.66 2.483-13.824 7.451-19.404 13.392-5.58 5.976-10.908 16.2-13.752 22.068-2.916 5.724-4.032 9.756-3.492 12.239 3.492-0.252 6.408 0.108 8.892 1.225 2.448 1.08 4.428 2.52 5.94 5.292 1.44 2.7 2.556 5.903 2.952 10.728 0.252 4.752 0.216 13.212-0.792 17.748-0.972 4.428-2.736 7.272-5.148 8.676 1.26 1.261 2.88 1.692 4.86 1.296 1.944-0.468 5.112-0.287 6.732-3.743 1.44-3.637 1.836-10.692 2.448-16.992 0.54-6.372-0.54-14.364 1.332-20.376 1.836-6.084 4.968-11.844 9.972-15.624 5.076-3.924 14.04-7.309 19.944-7.38 5.76 0.036 11.304 2.7 14.544 7.164 3.06 4.355 2.772 10.439 4.572 18.684 1.764 8.1 4.752 23.004 6.192 29.988 1.26 6.876 0.504 7.775 1.908 11.592 1.44 3.78 2.34 8.208 6.444 10.944 3.996 2.52 6.048 3.743 17.532 5.075 11.484 1.368 35.532 2.521 50.904 3.024 15.264 0.252 29.952-0.252 40.176-0.936 10.044-0.648 14.616-0.721 19.944-2.845 5.22-2.34 8.208-5.436 11.305-10.548 2.917-5.22 4.463-12.708 6.731-19.979 2.197-7.488 4.393-16.92 7.021-23.58 2.592-6.624 4.211-12.061 8.604-15.48 4.32-3.42 12.707-6.479 17.531-4.896 4.789 1.548 8.928 8.532 11.305 14.147 2.232 5.473 1.98 11.952 2.699 18.469 0.721 6.371 0.973 14.399 1.873 19.619 0.936 5.076 1.188 8.532 3.527 10.944 2.305 2.16 8.641 3.06 9.684 2.844 0.793-0.359-3.131-1.907-4.572-3.96-1.584-1.943-3.527-3.42-4.031-7.92-0.504-4.68-1.08-14.616 1.332-19.8 2.34-5.22 9.145-9.108 12.924-11.521 3.672-2.52 7.057-1.871 9.18-3.6 2.053-1.8 2.34-2.052 2.953-7.164 0.504-5.292 0.18-15.983 0.287-23.76 0.072-7.884 0.396-16.668 0-22.608-0.504-5.976 0.359-9.684-3.24-12.636-3.852-3.023-10.043-4.68-19.152-5.112-1.619 1.548-4.355 2.269-8.352 2.448-4.104 0.072-9.504-1.691-15.623-1.691-6.193-0.108-13.752 1.836-20.736 1.512-7.02-0.36-13.932-1.548-21.024-3.564-29.016-0.324-54.468-0.468-77.616-0.576-23.22-0.144-43.848-0.144-60.084 0-16.308-0.035-25.056 0.252-36.36 0.469-11.34 0.216-22.824 0.647-30.708 1.151-7.848 0.433-14.4 1.98-16.2 1.872-1.98-0.18-1.8-1.656 4.86-2.628 6.696-1.08 23.328-2.412 34.776-3.023 11.376-0.648 22.104-0.648 32.868-0.396-6.26-1.9-12.56-3.81-18.857-5.72z" stroke="#000" stroke-linecap="round" stroke-miterlimit="10" stroke-width=".036" fill="#2CB0CF"/>
      <path stroke-linejoin="round" d="m35.001 275.61c-0.54 2.664-1.26 5.256-1.872 7.92-0.684 2.556-1.404 5.184-2.16 7.739l-4.032-0.18c0.288-1.584 0.468-3.456 0.252-5.472-0.144-2.088-0.684-4.464-1.332-6.984 0.612 1.152 1.692 1.368 3.24 0.937 1.584-0.59 3.42-1.81 5.904-3.97z" stroke="#000" stroke-linecap="round" stroke-miterlimit="10" stroke-width=".036" fill="#2CB0CF"/>
      <path stroke-linejoin="round" d="m18.837 290.51l5.148 0.181c0.324-2.593 0.504-5.257 0.54-7.704-0.036-2.484-0.216-5.04-0.54-7.38-0.756 0.216-1.656-0.036-2.7-0.757-1.044-0.827-2.268-1.979-3.528-3.743-0.756 2.304-0.972 4.968-0.792 8.279 0.18 3.2 0.756 6.91 1.872 11.12z" stroke="#000" stroke-linecap="round" stroke-miterlimit="10" stroke-width=".036" fill="#C0C0C0"/>
      <path stroke-linejoin="round" d="m32.589 275.07c3.708-2.557 6.624-5.832 8.892-9.828 2.304-4.104 4.284-9.721 4.572-14.328 0.036-4.645-1.44-10.26-3.744-13.393-2.304-3.312-5.58-5.22-9.972-6.012 1.62 6.229 2.556 12.061 2.952 17.893 0.36 5.796-0.468 12.168-0.828 16.596-0.468 4.24-1.044 7.27-1.872 9.07z" stroke="#000" stroke-linecap="round" stroke-miterlimit="10" stroke-width=".036" fill="#C0C0C0"/>
      <path stroke-linejoin="round" d="m22.905 229.42c-0.144 2.052 1.764 6.3 2.412 12.061 0.54 5.724 0.756 16.451 1.08 21.888 0.252 5.364 0.288 7.632 0.54 10.008 0.108 2.304-0.036 3.636 0.54 3.564 0.648-0.252 1.908 0.071 2.952-4.717 0.864-5.004 2.376-17.748 2.448-24.336-0.108-6.659-0.972-11.556-2.16-14.688-1.224-3.24-3.312-3.313-4.608-3.96-1.368-0.75-3.132-1.79-3.204 0.19z" stroke="#000" stroke-linecap="round" stroke-miterlimit="10" stroke-width=".036" fill="#C0C0C0"/>
      <path stroke-linejoin="round" d="m20.997 231.29c-1.368-0.108-3.276 6.48-4.32 11.7-1.08 5.184-2.772 13.644-1.872 18.864 0.9 5.075 5.364 10.403 7.02 11.52 1.512 1.08 1.728-0.647 2.16-5.472 0.288-5.112 0.468-18.181 0-24.336-0.576-6.22-1.8-12.12-2.988-12.27z" stroke="#000" stroke-linecap="round" stroke-miterlimit="10" stroke-width=".036" fill="#F7F619"/>
      <path stroke-linejoin="round" d="m21.285 219.99l0.252 7.164c0.648-0.36 1.692-0.685 2.988-0.576 1.26 0 2.916 0.252 4.824 0.756 0.576-3.348 0.216-5.508-1.08-6.768-1.44-1.18-3.636-1.47-6.984-0.57z" stroke="#000" stroke-linecap="round" stroke-miterlimit="10" stroke-width=".036" fill="#C0C0C0"/>
      <path stroke-linejoin="round" d="m21.537 213.76c-0.576 0.828-0.756 1.584-0.54 2.269 0.18 0.611 1.224 1.368 1.62 1.691 0.252 0.252 0.252 0.252 0 0h3.78l-0.54-3.384c-1.44-0.18-2.88-0.36-4.32-0.58z" stroke="#000" stroke-linecap="round" stroke-miterlimit="10" stroke-width=".036" fill="#C0C0C0"/>
      <path stroke-linejoin="round" d="m22.365 211.71c1.476 0.468 5.148 0.468 6.444 0 1.26-0.54 2.088-2.196 1.08-3.024-1.152-0.936-6.156-2.34-7.812-2.268-1.728 0-2.484 1.512-2.412 2.448 0 0.86 1.08 2.26 2.7 2.84z" stroke="#000" stroke-linecap="round" stroke-miterlimit="10" stroke-width=".036" fill="#C0C0C0"/>
      <path stroke-linejoin="round" d="m19.809 222.83l-2.232-1.584c-1.296 0.576-2.232 1.224-2.664 1.8-0.54 0.54-0.612 1.152-0.216 1.692h4.5c0.18-0.61 0.396-1.26 0.612-1.91z" stroke="#000" stroke-linecap="round" stroke-miterlimit="10" stroke-width=".036" fill="#C0C0C0"/>
      <path stroke-linejoin="round" d="m11.349 235.18c0.036 0.433 0.036 0.9 0 1.549-0.036 0.539-0.108 1.26-0.216 2.016 2.412-0.036 4.032-0.252 5.004-0.648 0.828-0.504 1.404-1.62 0.612-2.088-0.9-0.58-2.556-0.72-5.4-0.83z" stroke="#000" stroke-linecap="round" stroke-miterlimit="10" stroke-width=".036" fill="#C0C0C0"/>
      <path stroke-linejoin="round" d="m11.061 240.15c-0.108 0.287-0.18 0.899-0.216 1.439-0.072 0.648-0.108 1.225-0.108 2.124l3.276 0.288c0.72-0.792 1.152-1.548 1.296-2.124 0.036-0.684-0.18-1.188-0.792-1.656-1.152 0-2.304-0.04-3.456-0.07z" stroke="#000" stroke-linecap="round" stroke-miterlimit="10" stroke-width=".036" fill="#C0C0C0"/>
      <path stroke-linejoin="round" d="m10.773 246.74c0 0.323-0.18 0.792-0.144 1.403-0.072 0.576-0.108 1.296-0.108 2.16l2.7 0.252c0.612-0.792 0.972-1.548 1.08-2.124 0.036-0.684-0.144-1.224-0.684-1.62-0.936 0-1.872-0.04-2.844-0.07z" stroke="#000" stroke-linecap="round" stroke-miterlimit="10" stroke-width=".036" fill="#C0C0C0"/>
      <path stroke-linejoin="round" d="m10.449 252.14c-0.108 0.288-0.108 0.9-0.144 1.44-0.036 0.647-0.108 1.224-0.072 2.124l2.376 0.288c0.576-0.792 0.9-1.548 0.972-2.124 0-0.685-0.108-1.188-0.612-1.656-0.828 0-1.656-0.04-2.52-0.07z" stroke="#000" stroke-linecap="round" stroke-miterlimit="10" stroke-width=".036" fill="#C0C0C0"/>
      <path stroke-linejoin="round" d="m11.961 231.18c0.036 0.433 0.036 0.9 0 1.549-0.036 0.54-0.108 1.26-0.216 2.016 2.412-0.036 4.032-0.252 5.004-0.648 0.828-0.504 1.404-1.619 0.612-2.088-0.9-0.57-2.556-0.72-5.4-0.83z" stroke="#000" stroke-linecap="round" stroke-miterlimit="10" stroke-width=".036" fill="#C0C0C0"/>
      <path stroke-linejoin="round" d="m12.969 226.18c0.036 0.396 0.036 0.973 0 1.584-0.036 0.576-0.144 1.188-0.18 1.98 2.448-0.036 3.924-0.252 4.968-0.648 0.828-0.504 1.404-1.655 0.612-2.052-0.9-0.54-2.556-0.82-5.4-0.86z" stroke="#000" stroke-linecap="round" stroke-miterlimit="10" stroke-width=".036" fill="#C0C0C0"/>
      <path stroke-linejoin="round" d="m9.873 257.07c-0.072 0.323-0.18 0.792-0.18 1.403-0.036 0.576-0.108 1.296-0.072 2.16l2.664 0.288c0.612-0.864 0.972-1.584 1.08-2.16 0.036-0.684-0.18-1.224-0.648-1.62-0.936 0-1.872-0.04-2.844-0.07z" stroke="#000" stroke-linecap="round" stroke-miterlimit="10" stroke-width=".036" fill="#C0C0C0"/>
      <path stroke-linejoin="round" d="m9.909 262.11c-0.072 0.288-0.18 0.899-0.18 1.439-0.072 0.648-0.108 1.225-0.108 2.124l3.24 0.288c0.792-0.792 1.188-1.548 1.332-2.124 0.072-0.684-0.252-1.188-0.828-1.656-1.152 0-2.304-0.04-3.456-0.07z" stroke="#000" stroke-linecap="round" stroke-miterlimit="10" stroke-width=".036" fill="#C0C0C0"/>
      <path stroke-linejoin="round" d="m9.873 267.26c-0.144 0.288-0.18 0.9-0.252 1.44-0.072 0.647-0.108 1.224-0.108 2.124l3.744 0.288c0.936-0.792 1.404-1.549 1.548-2.124 0.108-0.685-0.252-1.188-0.936-1.656-1.332 0-2.664-0.04-3.996-0.07z" stroke="#000" stroke-linecap="round" stroke-miterlimit="10" stroke-width=".036" fill="#C0C0C0"/>
      <path stroke-linejoin="round" d="m9.981 273.23c-0.144 0.287-0.18 0.899-0.252 1.439-0.072 0.648-0.108 1.225-0.108 2.124l3.744 0.288c0.936-0.792 1.404-1.548 1.548-2.124 0.108-0.684-0.252-1.188-0.936-1.656-1.332 0-2.664-0.03-3.996-0.07z" stroke="#000" stroke-linecap="round" stroke-miterlimit="10" stroke-width=".036" fill="#C0C0C0"/>
      <path stroke-linejoin="round" d="m9.765 278.67c-0.144 0.288-0.18 0.9-0.252 1.44-0.072 0.647-0.108 1.224-0.108 2.124l3.744 0.287c0.936-0.791 1.404-1.548 1.548-2.123 0.108-0.685-0.252-1.188-0.936-1.656-1.332 0-2.664-0.04-3.996-0.07z" stroke="#000" stroke-linecap="round" stroke-miterlimit="10" stroke-width=".036" fill="#C0C0C0"/>
      <path stroke-linejoin="round" d="m10.485 284.14c-0.144 0.36-0.18 0.792-0.252 1.44-0.072 0.576-0.108 1.296-0.108 2.16l3.744 0.252c0.936-0.792 1.404-1.548 1.548-2.124 0.108-0.685-0.252-1.224-0.936-1.62-1.332-0.04-2.664-0.07-3.996-0.11z" stroke="#000" stroke-linecap="round" stroke-miterlimit="10" stroke-width=".036" fill="#C0C0C0"/>
      <path stroke-linejoin="round" d="m13.869 292.96c-4.464 0.396-4.824 1.512-6.48 4.176-1.8 2.521-4.392 5.904-3.744 11.664s2.232 18.108 7.524 23.004c5.148 4.752 17.496 6.48 23.436 5.868 5.796-0.647 9.288-3.996 11.592-9.612 2.232-5.831 3.888-18.863 1.908-24.516-2.196-5.688-8.532-7.523-14.292-9.252-5.796-1.8-15.588-1.87-19.944-1.33z" stroke="#000" stroke-linecap="round" stroke-miterlimit="10" stroke-width=".036" fill="#C0C0C0"/>
      <path stroke-linejoin="round" d="m338.8 307.72c-2.664 1.656-4.859 3.564-6.443 6.984-1.656 3.492-3.061 9.036-2.951 13.572-0.037 4.355 0.252 9.828 3.492 12.815 3.311 2.916 10.402 4.86 15.875 4.716 5.293-0.252 11.34-1.044 15.66-5.832 4.213-5.075 8.748-17.783 9.432-23.399 0.432-5.544-1.547-8.028-5.939-9.972-4.537-2.089-15.301-2.521-20.232-2.269s-6.37 1.48-8.9 3.39z" stroke="#000" stroke-linecap="round" stroke-miterlimit="10" stroke-width=".036" fill="#C0C0C0"/>
      <path stroke-linejoin="round" d="m328.87 348.65c8.82 0.432 16.488 0.576 23.148 0.576 6.588-0.072 12.023-0.396 16.451-0.973-1.367 3.601-1.908 6.517-1.619 8.893 0.252 2.304 1.332 3.996 3.24 5.075-5.904-2.052-12.24-3.743-19.404-5.075-7.236-1.368-14.904-2.376-23.436-3.024 0.54-1.8 1.08-3.63 1.62-5.47z" stroke="#000" stroke-linecap="round" stroke-miterlimit="10" stroke-width=".036" fill="#C0C0C0"/>
      <path stroke-linejoin="round" d="m391.62 336.95c-3.707-0.145-6.443 0.288-8.352 1.692-2.016 1.296-3.457 4.392-2.953 6.228 0.541 1.764 2.557 3.168 6.193 4.356-5.221 6.191-6.84 10.476-4.861 12.995 1.945 2.484 7.381 3.061 16.453 1.872 5.688 4.5 9.9 6.013 12.637 4.933 2.734-1.188 3.779-5.148 3.527-11.88 4.68-1.801 7.775-4.032 9.684-6.984 1.836-3.024 2.52-8.964 1.367-10.584-1.295-1.656-4.211-1.404-8.891 0.756 2.736-2.844 4.211-5.652 4.824-8.28 0.395-2.699-0.289-6.624-1.621-7.739-1.332-1.152-3.348-0.792-6.191 0.936-2.016-1.439-4.213-1.872-6.191-1.296-2.018 0.576-4.213 1.944-6.193 4.5-3.852-1.908-6.947-2.592-9.432-2.052-2.592 0.54-5.363 3.204-5.4 5.076-0.01 1.79 1.79 3.52 5.39 5.46z" stroke="#000" stroke-linecap="round" stroke-miterlimit="10" stroke-width=".036"/>
      <path stroke-linejoin="round" d="m396.48 338.82c-4.752-0.828-8.207-0.756-10.512 0.216-2.412 1.044-3.959 3.564-3.24 5.472 0.756 1.729 3.313 3.313 7.813 4.896-5.4 5.544-7.236 9.324-5.652 11.483 1.584 2.16 6.697 2.412 15.336 1.152 4.752 3.853 8.172 5.04 10.26 3.96 2.053-1.188 2.773-4.788 2.16-10.944 3.961-1.691 6.697-3.527 8.354-5.651 1.547-2.232 2.771-5.76 1.332-6.984-1.549-1.26-4.824-1.332-10.225-0.359 2.088-1.477 3.564-3.385 4.572-5.868 0.863-2.484 1.729-7.704 1.08-8.856-0.684-1.26-2.34-0.756-5.113 1.512-0.828-1.836-1.871-2.483-3.527-2.088-1.656 0.469-3.672 1.801-6.191 4.536-4.465-2.7-7.74-3.78-9.973-3.78-2.305 0.108-3.852 2.089-3.24 4.141 0.61 1.87 2.77 4.21 6.77 7.16z" stroke="#000" stroke-linecap="round" stroke-miterlimit="10" stroke-width=".036" fill="#C0C0C0"/>
      <path stroke-linejoin="round" d="m54.801 338.75c-0.576 1.404-0.108 4.464 1.548 9.324 1.476 4.824 3.384 13.607 8.1 19.404 4.788 5.651 12.744 12.636 20.376 14.436 7.632 1.584 17.208-0.072 24.552-4.392 7.056-4.393 13.068-11.593 18.036-21.744-5.4-3.024-9.18-6.948-11.484-11.916-2.268-5.112-1.296-10.152-2.376-17.893-1.332-7.739-3.024-20.556-4.932-28.151-1.944-7.704-2.7-13.933-6.3-17.568-3.78-3.6-10.26-4.932-15.12-4.392-4.86 0.359-9.684 3.132-13.356 6.768-3.744 3.564-7.164 8.028-8.856 14.652-1.764 6.588-1.404 18.647-1.836 24.66-0.612 5.796-0.216 7.812-1.584 10.619-1.485 2.81-3.609 4.82-6.777 6.19z" stroke="#000" stroke-linecap="round" stroke-miterlimit="10" stroke-width=".036" fill="#404040"/>
      <path stroke-linejoin="round" d="m81.945 322.66c-0.576 3.636-0.432 3.708 0.288 6.588 0.648 2.808 0.936 8.172 3.924 10.26 2.952 2.052 9.684 3.492 13.824 1.8 4.068-1.836 9.216-7.056 10.44-12.6 1.044-5.652-0.72-16.056-3.636-20.664-2.988-4.716-9.972-6.804-13.608-6.948-3.744-0.107-6.156 2.521-8.064 6.229-1.975 3.56-2.659 11.59-3.163 15.33z" stroke="#000" stroke-linecap="round" stroke-miterlimit="10" stroke-width=".036"/>
      <path stroke-linejoin="round" d="m84.285 322.62c-0.504 3.312-0.432 3.312 0.216 5.976 0.576 2.521 0.936 7.597 3.564 9.252 2.592 1.549 8.46 1.944 11.916 0.36 3.384-1.764 7.2-5.256 8.1-10.044 0.648-4.896-1.404-14.292-3.672-18.468-2.376-4.284-7.092-6.48-9.972-6.588-3.06-0.145-5.544 2.195-7.308 5.616-1.729 3.17-2.449 10.58-2.845 13.89z" stroke="#000" stroke-linecap="round" stroke-miterlimit="10" stroke-width=".036" fill="#C0C0C0"/>
      <path stroke-linejoin="round" d="m254.56 358.7c-0.936 0.468-1.08 2.052-0.288 4.752 0.576 2.628 2.052 7.92 4.716 11.16 2.772 3.132 7.2 6.048 11.735 8.208 4.393 2.159 9 4.392 14.652 4.752 5.652 0.252 13.033 0.071 18.793-2.916 5.652-3.204 11.412-9.072 14.904-15.372 3.348-6.3 5.039-13.572 5.219-22.104-2.555-0.756-4.248-3.023-5.508-6.947-1.26-4.068-1.439-10.908-1.799-16.633-0.396-5.76-0.109-11.88-0.793-17.388-0.791-5.58-1.871-11.88-3.924-15.696-2.268-3.96-5.508-6.588-8.893-7.487-3.383-0.864-7.811 0.18-10.943 2.159-3.168 1.837-5.184 3.24-7.848 8.784-2.771 5.4-5.977 16.236-8.1 23.761-2.125 7.451-2.305 14.724-4.717 20.844-2.592 5.939-7.56 11.34-10.44 14.796-2.87 3.39-5.17 5.12-6.76 5.34z" stroke="#000" stroke-linecap="round" stroke-miterlimit="10" stroke-width=".036" fill="#404040"/>
      <path stroke-linejoin="round" d="m279.19 324.68c-0.541 3.637-0.504 3.708 0.252 6.588 0.648 2.845 0.936 8.101 3.924 10.225 2.953 1.979 9.684 3.563 13.824 1.836 4.068-1.836 9.217-7.057 10.439-12.601 1.08-5.651-0.828-16.056-3.635-20.664-3.025-4.716-9.865-6.804-13.572-6.947-3.709-0.108-6.229 2.52-8.1 6.228-1.93 3.54-2.65 11.57-3.12 15.32z" stroke="#000" stroke-linecap="round" stroke-miterlimit="10" stroke-width=".036"/>
      <path stroke-linejoin="round" d="m281.49 324.64c-0.504 3.313-0.434 3.349 0.215 5.94 0.576 2.52 0.936 7.56 3.564 9.288 2.592 1.548 8.461 1.944 11.916 0.36 3.385-1.765 7.199-5.257 8.1-10.045 0.756-4.896-1.477-14.292-3.635-18.468-2.377-4.284-7.057-6.479-10.01-6.588-2.986-0.144-5.65 2.196-7.307 5.616-1.71 3.17-2.43 10.59-2.83 13.9z" stroke="#000" stroke-linecap="round" stroke-miterlimit="10" stroke-width=".036" fill="#C0C0C0"/>
      <path stroke-linejoin="round" d="m144.98 194c-1.764-0.576-3.204-0.612-4.716-0.504-1.62 0.072-3.096 0.036-4.032 1.44-0.9 1.404-1.296 3.636-1.188 6.84-0.936-0.181-1.548 0.144-2.124 0.972-0.684 0.756-1.26 2.34-1.188 3.78 0.108 1.439 0.612 2.808 1.656 4.5-2.052 0.035-3.024 0.792-3.312 2.124-0.288 1.26-0.432 4.896 1.908 5.903 2.304 1.008 6.192 1.08 11.808 0.216 0.108-3.312 0.324-6.407 0.504-9.432 0.216-3.168 0.396-6.408 0.684-8.748 0.144-2.34 0.396-4.032 0.468-5.22 0.03-1.23-0.22-1.8-0.47-1.87z" stroke="#000" stroke-linecap="round" stroke-miterlimit="10" stroke-width=".036"/>
      <path stroke-linejoin="round" d="m133.35 213.33c0.9 0.396 2.196 2.412 3.744 2.844 1.44 0.324 3.852-0.936 4.752-0.576 0.792 0.252 1.116 1.944 0 2.448-1.224 0.396-5.328 0.54-7.056 0.288-1.944-0.36-3.132-1.548-3.708-2.304-0.54-0.828 0.108-2.196 0.576-2.557 0.23-0.5 0.84-0.65 1.7-0.14z" stroke="#000" stroke-linecap="round" stroke-miterlimit="10" stroke-width=".036" fill="#E2B79C"/>
      <path stroke-linejoin="round" d="m147.14 197.24c1.152-0.072 2.16 0.359 3.168 1.296 0.936 0.828 2.124 2.124 2.736 4.176 0.54 2.052 0.684 4.68 0.576 8.028l5.292 3.456c0.792-2.628 1.656-5.364 2.736-8.641 0.972-3.348 2.268-7.775 3.6-10.764 1.296-3.096 2.916-6.228 4.572-7.308 1.584-1.08 3.312-0.792 5.184 0.864 5.868-3.456 10.908-7.38 15.516-11.628 4.608-4.32 8.352-8.964 11.772-14.076l2.16-1.728c-0.252-0.684 0.324-4.32 1.872-11.052 1.512-6.804 3.852-16.524 7.164-29.448-2.628-1.152-4.392-2.772-5.58-5.004-1.188-2.376-2.124-7.02-1.44-8.496 0.612-1.512 3.672-1.224 5.292-0.252 1.476 0.972 2.772 2.7 3.888 5.724-0.396-4.32-0.252-8.712 0.288-13.176 0.612-4.572 1.44-10.836 3.024-13.788 1.404-3.132 4.464-6.228 5.436-4.14 0.864 2.196 0.864 7.74-0.144 17.064 2.196-5.436 4.212-9.072 6.048-10.908 1.764-1.836 4.212-1.512 4.716-0.144 0.324 1.224-0.72 3.816-1.872 7.632-1.116 3.708-2.592 8.532-4.572 14.616 2.7-4.86 5.184-8.064 7.164-9.612 1.98-1.656 4.068-0.828 4.896 0.144 0.684 0.9 0.864 3.24-0.144 5.472-1.08 2.124-2.916 4.608-5.904 7.452 3.024-1.404 5.364-1.836 7.164-1.584 1.872 0.288 3.204 1.908 3.456 3.312 0 1.296-1.332 2.916-3.168 4.428-2.052 1.332-5.796 1.476-8.316 3.888-2.52 2.448-4.068 4.644-6.876 10.476-2.952 5.724-8.568 17.46-10.62 23.544-2.16 5.94-2.88 10.008-2.16 12.204 1.764-0.108 2.628 0.468 2.736 1.872 0.072 1.332-1.296 3.204-2.16 6.3-0.972 2.988-1.8 6.264-3.312 11.916-1.656 5.652-4.32 15.732-5.904 21.924-1.548 6.155-2.628 10.943-3.24 14.76h-43.704c-2.052 0.288-4.068-0.252-5.652-1.62-1.584-1.44-3.132-4.68-4.356-6.66-1.368-2.052-2.808-3.96-4.032-5.58 0.87-4.97 1.77-9.94 2.67-14.94z" stroke="#000" stroke-linecap="round" stroke-miterlimit="10" stroke-width=".036"/>
      <path stroke-linejoin="round" d="m138.25 195.51c-0.936 0.288-1.044 1.765-1.152 3.313-0.252 1.548-0.9 4.283 0 5.724 0.792 1.224 3.852 3.42 4.896 2.16 0.864-1.44 1.476-8.028 0.864-9.9-0.76-1.9-3.64-1.69-4.61-1.29z" stroke="#000" stroke-linecap="round" stroke-miterlimit="10" stroke-width=".036" fill="#E2B79C"/>
      <path stroke-linejoin="round" d="m135.22 204.4c0.792 0.54 1.332 2.34 2.448 3.456 1.08 0.972 3.348 1.512 3.744 2.447 0.288 0.9-0.936 3.024-2.016 2.88-1.332-0.287-4.032-3.023-5.184-4.319-1.224-1.477-1.692-3.097-1.548-3.889s1.7-1.12 2.56-0.58z" stroke="#000" stroke-linecap="round" stroke-miterlimit="10" stroke-width=".036" fill="#E2B79C"/>
      <path stroke-linejoin="round" d="m149.34 199.97c0.288-0.54 1.188 0.828 1.728 2.017 0.396 1.08 1.332 3.168 1.296 4.716-0.18 1.548-1.08 3.312-1.728 4.032-0.792 0.54-1.98 0.396-2.304-0.576-0.36-1.116 0.252-3.492 0.432-5.185 0.06-1.84 0.21-4.43 0.57-5.01z" stroke="#000" stroke-linecap="round" stroke-miterlimit="10" stroke-width=".036" fill="#E2B79C"/>
      <path stroke-linejoin="round" d="m153.22 213.04c1.44 0.576 2.484 1.188 3.276 1.836 0.72 0.54 1.152 1.296 1.296 1.872-0.288 2.916-0.576 5.076-1.008 6.192-0.468 1.079-0.936 1.403-1.548 0.684-0.648 0.54-1.224 0.36-1.872-0.54-0.648-1.008-1.368-2.556-2.016-5.04 0.252-0.576 0.54-1.152 0.864-2.016 0.33-0.89 0.62-1.79 1.01-2.98z" stroke="#000" stroke-linecap="round" stroke-miterlimit="10" stroke-width=".036" fill="#E2B79C"/>
      <path stroke-linejoin="round" d="m158.7 223.8c0.108-2.195 0.72-5.256 1.836-9.468 0.972-4.212 3.204-11.376 4.608-15.516 1.44-4.212 2.592-7.74 3.852-9.324 1.08-1.656 2.088-0.684 3.168-0.576 0.972 0.036 2.16 0.324 3.168 0.864 0.18 0.216 1.944-0.756 5.292-3.456 3.312-2.772 10.98-8.784 14.652-12.348 3.672-3.42 5.832-6.372 7.02-8.46 0.504 1.332 1.8 2.664 3.888 3.6 2.088 0.792 7.308 1.044 8.46 2.304 0.936 1.296-1.404 3.024-2.304 5.868-0.864 2.772-1.224 2.988-3.024 10.764-1.944 7.776-4.788 19.332-8.532 35.352-7.524 0.18-14.616 0.359-21.672 0.396s-13.88 0.06-20.43 0.02z" stroke="#000" stroke-linecap="round" stroke-miterlimit="10" stroke-width=".036" fill="#F7F619"/>
      <path stroke-linejoin="round" d="m207.19 199.11c-1.584 1.044-2.916 1.188-3.6 0.432-0.72-0.828-1.188-2.412-1.008-5.04-2.484-0.684-3.492-1.728-3.168-3.132 0.252-1.512 1.98-3.24 5.04-5.472-1.764-2.196-2.34-4.104-2.016-5.58 0.36-1.728 2.592-3.528 4.176-3.456 1.548 0.18 3.168 1.62 5.004 4.464-1.47 5.91-2.95 11.85-4.42 17.79z" stroke="#000" stroke-linecap="round" stroke-miterlimit="10" stroke-width=".036"/>
      <path stroke-linejoin="round" d="m207.62 196.66c-1.26 1.188-2.124 1.764-2.736 1.728-0.72-0.144-1.188-1.188-1.008-2.159 0.108-1.044 0.828-2.232 2.016-3.708-2.304 0.468-3.6 0.324-3.888-0.288-0.324-0.792 0.9-3.06 1.872-3.744 0.828-0.612 1.98-0.756 3.312-0.144-2.052-2.988-3.06-5.184-3.168-6.588-0.072-1.512 1.44-2.556 2.592-2.16 1.008 0.252 2.196 1.584 3.564 3.852-0.81 4.39-1.68 8.78-2.54 13.21z" stroke="#000" stroke-linecap="round" stroke-miterlimit="10" stroke-width=".036" fill="#FB0F0C"/>
      <path stroke-linejoin="round" d="m168.02 162.71c-0.324 5.22-0.18 10.152 0.576 14.796 0.684 4.572 0.72 9.576 3.6 12.78 2.808 3.204 9.108 7.2 13.212 6.156 3.996-1.296 8.136-7.596 10.764-13.212 2.556-5.796 3.204-16.02 4.284-20.376 0.828-4.284 0.468-3.132 1.296-5.004 0.864-2.016 2.808-4.356 3.6-6.336 0.684-2.088 0.828-4.32 0.288-5.58-0.72-1.296-2.844-1.836-3.888-2.016-1.008-0.252-1.728 0.036-2.16 0.72l0.144-2.016c1.62-1.404 3.06-2.268 4.464-3.024 1.332-0.72 2.484-1.188 3.6-1.26l-6.336-0.576c0.756-0.936 1.764-1.8 3.024-2.592 1.188-0.792 2.628-1.512 4.32-2.16-1.224-0.684-2.52-1.116-3.744-1.296-1.368-0.288-2.52-0.288-3.888-0.144 2.556-0.612 4.428-1.188 5.76-1.44 1.296-0.324 2.052-0.468 2.124-0.432-1.944-0.54-3.708-0.828-5.436-0.864-1.764-0.144-3.672 0.18-4.896 0.288-1.296 0.036-2.196 0.036-2.7 0 0.684-0.648 1.872-1.26 3.708-1.548 1.836-0.324 4.14-0.612 7.2-0.576l-5.184-1.008 4.896-1.584-6.48-2.16c-0.648-0.9-1.98-1.62-3.852-2.016-1.908-0.468-4.5-0.612-7.632-0.576-0.684-1.512-2.16-1.944-4.428-1.584-2.412 0.396-6.768 1.872-9.324 3.888-2.484 1.872-4.5 4.86-5.76 7.308-1.44 2.34-2.628 4.644-2.448 6.912 0.108 2.124 1.116 4.176 3.168 6.156-2.124 0.396-3.564 1.44-4.176 2.736-0.684 1.296-0.36 3.708 0.144 5.292 0.432 1.512 1.152 2.664 2.304 3.6-0.01 2.91-0.05 5.83-0.12 8.74z" stroke="#000" stroke-linecap="round" stroke-miterlimit="10" stroke-width=".036"/>
      <path stroke-linejoin="round" d="m170.18 155.69c-0.288 2.268-0.432 4.032-0.288 5.436 0 1.26-0.036 1.98 0.864 2.592 0.756 0.54 2.052 1.296 4.32 1.008 2.232-0.396 5.94-1.08 9.18-3.024 3.24-2.088 8.064-8.388 9.756-8.748 1.44-0.288 0.324 2.34-0.288 6.624-0.648 4.212-1.944 13.752-3.312 18.216-1.404 4.248-3.168 7.38-5.148 7.596-2.16 0.108-5.076-3.384-7.2-6.444-2.16-3.132-3.924-7.056-5.436-11.916h-3.312c0.216 5.436 0.792 9.936 1.872 13.644 1.044 3.6 2.484 6.372 4.32 8.316 1.656 1.908 3.528 3.06 6.3 3.168 2.844-0.108 7.812-1.116 10.188-3.168 2.232-2.124 1.908-4.68 3.312-9.18 1.404-4.644 3.204-14.148 4.572-18.252 1.224-4.176 2.052-4.428 2.88-6.444 0.792-2.088 1.368-4.464 1.584-5.868 0.036-1.584-0.432-2.592-1.008-2.88-0.576-0.324-1.44 0.108-2.448 1.152l-2.304-3.168-6.156-0.144c0.144 1.8-0.288 3.24-1.152 4.32-0.9 1.008-2.736 1.764-4.14 2.124-1.548 0.36-3.312 0.54-4.608-0.144-1.332-0.828-2.34-2.304-3.168-4.572h-2.16c0.288 1.764 0.108 3.24-0.54 4.572-0.648 1.26-1.8 2.268-3.312 3.024-0.504 1.26-0.504 2.124 0 2.736 0.432 0.504 1.476 1.116 2.988 0.72 1.368-0.396 4.536-3.024 5.616-3.024 1.08-0.108 1.548 1.224 0.72 2.448-1.116 1.188-4.572 3.78-6.336 4.464-1.728 0.504-2.916-0.396-3.708-1.296-0.9-1.008-1.152-2.448-1.152-4.464-0.42 0.17-0.85 0.35-1.28 0.56z" stroke="#000" stroke-linecap="round" stroke-miterlimit="10" stroke-width=".036" fill="#E2B79C"/>
      <path stroke-linejoin="round" d="m175.22 167.46c0.108 1.98 0.864 3.996 2.124 6.444 1.296 2.412 3.816 7.092 5.616 7.776 1.62 0.468 2.916-0.468 4.428-4.32 1.476-3.96 2.916-10.08 4.464-18.792-4.068 3.528-7.416 5.868-10.188 7.452-2.77 1.48-4.96 1.91-6.44 1.44z" stroke="#000" stroke-linecap="round" stroke-miterlimit="10" stroke-width=".036" fill="#fff"/>
      <path stroke-linejoin="round" d="m172.05 141.18c0.972-0.288 1.656-0.144 2.448 0.144 0.684 0.288 1.296 0.864 1.836 1.728h2.736c-0.18-1.656 0.252-2.808 1.296-3.6 0.972-0.828 3.024-1.116 4.752-1.26 1.584-0.288 3.852-0.468 5.004 0 1.08 0.468 1.656 1.188 1.728 2.556l4.176-0.144c-1.152-1.152-1.728-1.872-1.728-2.556-0.036-0.72 1.548-0.684 1.44-1.296-0.288-0.792-2.304-1.656-2.592-2.592-0.324-0.972 1.116-2.484 0.72-2.88-0.612-0.396-2.736 0.252-3.744 0.144-1.116-0.288-1.188-1.656-2.304-1.728-1.224-0.18-3.672 1.08-4.428 1.008-0.756-0.216 0.36-1.764-0.144-1.872-0.828-0.18-2.124 0.612-3.744 0.864-1.584 0.144-4.14-0.36-5.292 0.144-1.08 0.468-0.864 1.8-1.584 2.592-1.008 0.576-3.456 0.036-3.6 1.44-0.07 1.53 0.76 3.83 2.99 7.32z" stroke="#000" stroke-linecap="round" stroke-miterlimit="10" stroke-width=".036" fill="#E2B79C"/>
      <path stroke-linejoin="round" d="m170.04 137.48c1.116-0.36 2.268-0.684 3.456-0.576 1.224 0 3.384 0.288 3.564 0.72 0 0.396-2.016 1.152-3.132 1.584-1.224 0.288-2.52 0.468-3.888 0.396v-2.12z" stroke="#000" stroke-linecap="round" stroke-miterlimit="10" stroke-width=".036"/>
      <path stroke-linejoin="round" d="m181.95 135.17c0.432-0.54 3.672-0.828 5.292-0.864 1.44-0.036 4.356 0.252 3.888 0.72-0.576 0.396-5.22 1.62-6.732 1.728-1.58 0-2.95-1.23-2.45-1.59z" stroke="#000" stroke-linecap="round" stroke-miterlimit="10" stroke-width=".036"/>
      <path stroke-linejoin="round" d="m169.75 131.43c0.396 0.108 1.008 0.108 1.44-0.288 0.396-0.432 0.828-1.476 1.44-1.872 0.54-0.396 1.116-0.54 1.872-0.432 0.612-2.16 1.944-4.068 3.996-5.436 2.016-1.404 4.752-2.556 8.208-3.168-0.648-0.756-1.8-1.044-3.456-0.72-1.692 0.216-4.68 0.936-6.588 2.304-2.016 1.368-4.212 3.888-5.328 5.616-1.15 1.59-1.73 2.92-1.58 4z" stroke="#000" stroke-linecap="round" stroke-miterlimit="10" stroke-width=".036" fill="#EDEF01"/>
      <path stroke-linejoin="round" d="m176.52 128.84c-0.036-1.476 0.864-2.808 2.844-3.996 1.908-1.404 5.652-2.88 8.892-3.312 3.168-0.396 6.66 0.036 10.332 1.152-4.464-0.576-8.244-0.288-11.34 0.72-3.168 1.044-5.652 2.808-7.452 5.436h-3.27z" stroke="#000" stroke-linecap="round" stroke-miterlimit="10" stroke-width=".036" fill="#EDEF01"/>
      <path stroke-linejoin="round" d="m183.1 128.01c0.756-1.116 1.908-1.98 3.6-2.592 1.656-0.648 4.32-1.26 6.444-1.44 2.088-0.288 3.996-0.288 5.868-0.144 1.692 0.072 3.132 0.216 4.32 0.576-1.26 0.432-2.124 0.864-2.736 1.152-0.648 0.288-0.936 0.576-0.864 0.72-1.296 0.036-2.628 0.468-3.996 1.152-1.404 0.648-2.844 1.692-4.32 2.988-0.864-0.936-1.728-1.512-2.736-1.728-1.116-0.288-2.16 0.324-3.132 0.288-1-0.15-1.68-0.48-2.44-0.98z" stroke="#000" stroke-linecap="round" stroke-miterlimit="10" stroke-width=".036" fill="#EDEF01"/>
      <path stroke-linejoin="round" d="m195.74 130.71c3.096-0.756 4.86-1.044 5.436-0.864 0.468 0.072-1.224 0.828-2.304 1.584-1.188 0.684-2.484 1.548-4.284 2.592-0.072-0.612-0.072-1.188 0.144-1.728s0.5-1.11 1-1.58z" stroke="#000" stroke-linecap="round" stroke-miterlimit="10" stroke-width=".036" fill="#EDEF01"/>
      <path stroke-linejoin="round" d="m196.17 134.16c1.548-0.576 3.024-1.008 4.428-1.152 1.368-0.252 2.664-0.252 3.888 0-1.656 0.684-2.952 1.548-3.744 2.448-0.936 0.9-1.692 2.232-1.296 2.88 0.324 0.54 1.476 0.684 3.456 0.432l-3.6 2.7-2.268-0.72c-0.9-0.936-1.332-1.692-1.296-2.412 0.036-0.684 1.116-1.26 1.296-1.872 0.07-0.72-0.22-1.44-0.87-2.31z" stroke="#000" stroke-linecap="round" stroke-miterlimit="10" stroke-width=".036" fill="#EDEF01"/>
      <path stroke-linejoin="round" d="m180.66 141.76c-0.576 1.008 0.036 2.628 0.576 3.888 0.468 1.188 1.008 2.52 2.448 3.024 1.404 0.324 4.752 0.684 5.868-0.72 1.008-1.512 1.152-6.696 0.288-8.064-0.972-1.368-3.708-0.54-5.292-0.144-1.6 0.28-3.4 1-3.9 2.01z" stroke="#000" stroke-linecap="round" stroke-miterlimit="10" stroke-width=".036" fill="#A16121"/>
      <path stroke-linejoin="round" d="m172.63 143.34c-1.224 0.036-2.7 0.468-3.6 1.152-0.972 0.648-1.692 1.188-1.872 2.448-0.216 1.188-0.072 3.312 0.576 4.428 0.468 1.008 1.476 1.584 2.592 1.584 1.152-0.18 2.952-1.404 4.032-2.304 0.936-0.972 1.512-2.016 1.728-3.132 0.216-1.152 0.072-2.952-0.432-3.6-0.73-0.76-1.88-0.72-3.03-0.58z" stroke="#000" stroke-linecap="round" stroke-miterlimit="10" stroke-width=".036" fill="#A16121"/>
      <path stroke-linejoin="round" d="m188.83 198.82c-0.252-1.692-0.252-2.952 0.288-4.176 0.504-1.188 1.368-2.556 2.592-2.844 1.116-0.324 3.384-0.216 3.888 0.864 0.324 1.044-0.108 2.664-1.584 5.148 1.26-0.612 2.232-0.612 3.312 0.144 1.044 0.72 2.916 2.664 2.7 4.176-0.396 1.404-1.872 2.88-4.716 4.428 0.864 1.549 1.296 2.845 1.152 4.032-0.216 1.152-1.08 2.809-2.016 2.88-0.936-0.071-2.232-1.08-3.744-3.023-0.936 2.088-1.764 3.24-2.88 3.6-1.152 0.252-2.988-0.972-3.564-1.728-0.684-0.973-0.36-2.269 0-3.313 0.288-1.008 1.008-1.872 2.016-2.592-2.196-1.62-3.636-2.916-4.464-4.284s-0.972-2.844-0.432-3.6c0.576-0.828 2.232-1.44 3.6-1.296 1.25 0.07 2.43 0.5 3.84 1.58z" stroke="#000" stroke-linecap="round" stroke-miterlimit="10" stroke-width=".036"/>
      <path stroke-linejoin="round" d="m190.12 201.27c-0.072-1.764 0.072-3.348 0.288-4.607 0.216-1.332 0.252-2.844 1.08-3.168 0.684-0.468 3.024-0.36 3.276 0.72 0.216 1.044-0.612 2.916-2.196 5.616 1.476-1.188 2.556-1.512 3.636-1.116 0.972 0.396 2.664 2.304 2.304 3.492-0.504 1.044-1.872 2.016-4.644 2.916 1.044 1.728 1.584 3.096 1.62 4.248-0.108 1.116-0.864 2.52-1.692 2.412-0.828-0.216-1.908-1.477-3.24-3.636-0.72 2.556-1.584 3.959-2.448 4.607-0.972 0.576-2.664-0.684-2.988-1.152-0.432-0.611 0.324-1.512 0.864-2.304 0.54-0.864 1.116-1.728 2.124-2.736-2.448-1.728-4.104-3.132-4.968-4.355-0.9-1.26-0.936-2.412-0.396-3.024 0.468-0.756 1.764-1.439 3.06-1.08 1.2 0.32 2.64 1.33 4.33 3.17z" stroke="#000" stroke-linecap="round" stroke-miterlimit="10" stroke-width=".036" fill="#FB0F0C"/>
      <path stroke-linejoin="round" d="m171.55 206.67c-0.324 1.332-0.936 2.448-1.692 3.204-0.828 0.72-2.124 1.512-3.06 1.404-1.044-0.217-2.844-1.08-2.772-2.053-0.036-0.936 1.116-2.124 3.06-3.563-1.152 0.107-2.052-0.36-2.556-1.26-0.576-0.9-1.512-3.349-0.72-4.284 0.792-1.08 2.52-1.656 5.328-1.872-0.216-1.584 0-2.736 0.504-3.6 0.468-0.936 1.8-1.98 2.592-1.584 0.792 0.36 1.296 1.548 1.908 3.708 1.368-1.403 2.556-2.016 3.564-1.835 1.008 0.108 1.944 1.728 2.232 2.627 0.072 0.792-0.504 1.944-1.152 2.629-0.648 0.575-1.44 1.151-2.52 1.331 1.152 2.017 1.836 3.637 2.052 5.005 0.216 1.367-0.324 2.411-0.936 2.987-0.756 0.324-2.376 0.252-3.312-0.216-1-0.52-1.79-1.35-2.51-2.64z" stroke="#000" stroke-linecap="round" stroke-miterlimit="10" stroke-width=".036"/>
      <path stroke-linejoin="round" d="m171.58 204.47c-0.648 1.368-1.26 2.557-1.836 3.564-0.684 0.864-1.296 2.052-1.98 2.16-0.792-0.072-2.592-0.792-2.34-1.729 0.252-0.936 1.44-2.124 3.708-3.708-1.548 0.469-2.7 0.216-3.312-0.359-0.684-0.721-1.332-2.845-0.576-3.601 0.648-0.792 2.268-0.936 4.716-0.72-0.288-1.692-0.216-3.132 0.216-3.924 0.396-0.936 1.548-1.836 2.196-1.332 0.576 0.468 1.008 1.764 1.296 4.032 1.368-1.765 2.592-2.7 3.528-2.809 0.936-0.108 1.8 1.296 2.016 1.98 0 0.468-0.828 0.972-1.512 1.512-0.684 0.432-1.62 0.9-2.664 1.404 1.404 2.159 2.088 3.96 2.448 5.256 0.216 1.296-0.216 2.088-0.756 2.52-0.684 0.396-1.944 0.469-2.808-0.18-0.88-0.78-1.71-2.01-2.36-4.06z" stroke="#000" stroke-linecap="round" stroke-miterlimit="10" stroke-width=".036" fill="#FB0F0C"/>
      <path stroke-linejoin="round" d="m160.32 225.24c-1.8-2.592-2.448-4.68-1.944-6.12 0.432-1.44 2.016-2.376 4.752-2.664 0.144-3.42 0.972-5.04 2.484-5.004 1.512 0 3.492 1.764 6.336 5.292 1.836-2.916 3.492-4.248 5.112-4.14 1.548 0 3.96 2.52 4.176 4.644 0.144 2.124-1.044 4.608-3.42 7.848-5.84 0.04-11.67 0.07-17.5 0.14z" stroke="#000" stroke-linecap="round" stroke-miterlimit="10" stroke-width=".036"/>
      <path stroke-linejoin="round" d="m162.33 224.38c-1.656-1.691-2.52-2.844-2.592-3.852-0.18-1.044 0.936-1.872 1.944-1.908s2.304 0.54 4.032 1.728c-0.936-2.88-1.08-4.571-0.432-5.22 0.612-0.612 3.06 0.396 3.996 1.512 0.72 1.009 1.116 2.412 0.792 4.356 2.52-3.492 4.428-5.364 5.868-5.904 1.332-0.468 2.664 1.188 2.592 2.88-0.144 1.584-1.188 3.673-3.276 6.408-4.28-0.01-8.6-0.01-12.92-0.01z" stroke="#000" stroke-linecap="round" stroke-miterlimit="10" stroke-width=".036" fill="#FB0F0C"/>
      <path stroke-linejoin="round" d="m201.43 215.2c-0.648-1.872-1.656-3.313-2.88-4.608-1.332-1.296-3.564-3.6-4.608-3.023-1.044 0.432-1.62 2.447-1.584 5.903-1.368-1.008-2.556-1.296-3.564-1.008-1.044 0.36-2.736 1.548-2.592 2.736 0.072 1.116 0.936 2.124 2.88 3.563 0.504-0.035 0.504-0.035 0 0-0.648-0.071-2.448-0.252-3.168 0.145-0.72 0.359-1.188 1.26-1.008 2.304 0.144 0.9 0.54 2.232 1.584 3.601h12.636c0.75-3.19 1.51-6.4 2.3-9.6z" stroke="#000" stroke-linecap="round" stroke-miterlimit="10" stroke-width=".036"/>
      <path stroke-linejoin="round" d="m199.99 215.63l-1.728 7.74-10.332 0.432c-0.576-1.115-0.72-1.979-0.72-2.592 0-0.72-0.036-1.008 0.864-1.296 0.756-0.36 2.088-0.504 3.996-0.576-2.052-1.116-3.42-2.16-3.708-3.132-0.396-1.08 0.504-2.592 1.44-2.736 0.792-0.144 2.124 0.576 3.708 2.017-0.108-2.305 0.18-3.889 0.72-4.608 0.504-0.72 1.548-0.72 2.592 0.145 0.97 0.83 1.98 2.24 3.17 4.61z" stroke="#000" stroke-linecap="round" stroke-miterlimit="10" stroke-width=".036" fill="#FB0F0C"/>
      <path stroke-linejoin="round" d="m204.09 164.94c0.756 1.008 1.764 1.728 3.024 2.448 1.224 0.576 2.7 1.152 4.428 1.44 0.432-4.428 1.44-9.216 3.312-14.364 1.8-5.292 4.932-11.664 7.452-16.632 2.376-5.076 4.86-10.26 6.912-13.068 1.8-2.88 2.952-2.556 4.86-3.744 1.944-1.332 5.544-2.34 6.912-3.564 1.188-1.26 1.188-3.384 0.576-3.888-0.684-0.648-2.628 0-4.464 0.432-1.944 0.468-6.408 2.808-6.732 2.16-0.36-0.756 3.204-4.68 4.86-6.768 1.512-2.268 4.104-4.968 4.464-6.3 0.252-1.476-0.936-2.376-2.448-1.728-1.548 0.72-4.824 3.564-6.336 5.76-1.62 2.016-2.196 6.012-2.844 6.444-0.72 0.324-1.656-1.62-1.152-4.32 0.468-2.844 2.88-9.18 3.888-12.348 0.9-3.348 1.224-6.156 1.116-7.021-0.288-0.9-1.332-0.18-2.556 1.872-1.26 2.016-3.816 8.784-4.896 10.044-1.152 1.008-1.548-0.144-1.728-3.024-0.36-2.988 0.756-12.024 0.288-14.04-0.576-1.908-2.412-0.36-3.168 2.268-0.792 2.556-1.116 7.74-1.548 12.78-0.54 5.004-0.972 10.332-1.44 16.668-1.44-2.16-2.736-3.888-3.744-5.328-1.044-1.512-1.908-2.844-2.592-3.168-0.9-0.36-2.124-0.072-2.268 1.296-0.216 1.26 0.252 4.572 1.404 6.48 1.044 1.764 2.772 3.24 5.184 4.428-0.468 3.096-1.476 8.316-3.312 15.804-1.79 7.53-4.27 17-7.44 28.98z" stroke="#000" stroke-linecap="round" stroke-miterlimit="10" stroke-width=".036" fill="#E2B79C"/>
      <path stroke-linejoin="round" d="m219.46 123.47c-0.648 1.368-1.08 3.096-1.44 5.184-0.36 1.98-0.504 4.32-0.576 7.02-1.368-0.36-2.232-1.044-2.448-2.592-0.324-1.62 0.108-4.644 0.864-6.3 0.77-1.62 1.92-2.77 3.61-3.31z" stroke="#000" stroke-linecap="round" stroke-miterlimit="10" stroke-width=".036"/>
      <path stroke-linejoin="round" d="m436.69 318.84c-4.969-1.512-7.02-3.384-6.588-5.76 0.432-2.412 3.637-5.292 9.469-8.64 0.07-4.969 0.826-7.885 2.268-8.893 1.404-1.044 3.42-0.036 6.191 2.88-0.863-4.031-0.611-6.911 1.045-8.64 1.619-1.764 6.154-3.312 8.459-1.872 2.195 1.368 4.141 6.408 4.717 10.116 0.432 3.672-0.18 7.344-1.836 11.556 0.467 5.58-0.182 10.116-2.088 13.608-1.98 3.528-4.934 5.796-9.252 7.2-1.729 3.779-3.924 5.651-6.588 5.76-2.701 0.036-8.641-2.484-9.506-5.328-0.94-3 0.25-6.85 3.71-12z" stroke="#000" stroke-linecap="round" stroke-miterlimit="10" stroke-width=".036"/>
      <path stroke-linejoin="round" d="m440.22 318.23c-5.795-1.98-8.352-3.78-8.063-5.544 0.395-1.801 3.635-3.456 10.115-4.969-1.297-5.76-1.225-9.071 0.217-10.08 1.439-1.044 4.139 0.324 8.242 4.104-1.402-5.508-1.547-8.964-0.432-10.908 1.117-1.908 5.256-2.196 7.021-0.432 1.691 1.764 2.699 7.487 2.879 10.512-0.035 2.952-0.828 5.04-2.664 6.804 0.973 6.805 0.576 11.7-1.043 14.832-1.693 3.061-4.717 4.356-9.072 3.744 0 4.068-0.756 6.336-2.664 6.804-1.908 0.324-7.777-1.655-8.461-4.14-0.78-2.5 0.48-6.03 3.9-10.71z" stroke="#000" stroke-linecap="round" stroke-miterlimit="10" stroke-width=".036" fill="#C0C0C0"/>
      <path stroke-linejoin="round" d="m447.2 345.88c-0.684-2.592-0.684-4.824 0-6.408 0.576-1.728 2.34-3.312 3.924-3.491 1.512-0.252 3.348 0.432 5.365 2.052 2.52-1.188 4.643-1.368 6.371-0.396 1.656 0.937 3.275 2.88 3.744 5.977 0.252 2.987-0.756 9.611-1.656 11.952-0.9 2.124-2.305 2.628-3.924 1.224 0.324 3.492-0.217 6.444-2.053 8.46-1.943 2.052-6.875 4.932-8.676 3.924-1.764-1.152-2.268-4.464-1.656-10.332-6.516-0.576-9.828-1.943-10.08-4.104-0.27-2.15 2.61-5.11 8.66-8.85z" stroke="#000" stroke-linecap="round" stroke-miterlimit="10" stroke-width=".036"/>
      <path stroke-linejoin="round" d="m448.6 346.2c-0.576-2.269-0.576-3.888 0-5.292 0.576-1.477 1.801-2.628 3.24-2.88 1.225-0.145 2.699 0.288 4.428 1.691 2.123-1.008 3.889-1.115 5.291-0.323 1.369 0.828 2.664 2.34 3.061 4.932 0.289 2.412-0.719 8.028-1.367 9.9-0.793 1.836-1.873 2.124-3.24 1.008 0.072 3.672-0.504 6.408-1.873 8.352-1.367 1.836-4.859 4.212-6.191 3.097-1.404-1.152-2.123-4.356-2.16-9.757-5.4-0.504-8.135-1.584-8.352-3.384-0.18-1.84 2.16-4.29 7.16-7.35z" stroke="#000" stroke-linecap="round" stroke-miterlimit="10" stroke-width=".036" fill="#C0C0C0"/>
      <path stroke-linejoin="round" d="m134.68 166.92c-0.324 0.756-0.18 1.368 0.432 1.836 0.504 0.396 2.16 1.224 3.024 0.972 0.828-0.252 1.512-1.116 2.052-2.448 0.396 1.404 1.08 2.052 2.196 1.8s2.484-1.332 4.392-3.24c-0.216 0.612 0.108 1.224 0.684 1.548 0.504 0.252 1.8 1.08 2.916 0.54 1.116-0.576 2.16-1.872 3.528-3.888-4.104-0.036-7.74 0.072-10.908 0.612-3.23 0.47-6 1.23-8.31 2.27z" stroke="#000" stroke-linecap="round" stroke-miterlimit="10" stroke-width=".036"/>
      <path d="m136.81 164.87c-0.36 0.432-0.576 1.08-0.648 1.548-0.216 0.504-0.288 1.296 0.072 1.548 0.324 0.18 1.26 0.144 1.98-0.396 0.612-0.648 1.188-1.728 1.728-3.384-1.04 0.21-2.09 0.43-3.13 0.68z" fill="#E2B79C"/>
      <path d="m142.32 163.54c-0.252 0.54-0.432 1.152-0.396 1.692-0.036 0.576-0.036 1.26 0.396 1.62 0.288 0.216 1.008 0.396 1.764-0.288s1.584-2.052 2.628-3.96c-1.44 0.29-2.92 0.62-4.39 0.94z" fill="#E2B79C"/>
      <path d="m149.23 162.53c-0.396 0.54-0.576 1.296-0.684 1.872-0.108 0.612-0.18 1.62 0.18 1.908 0.18 0.036 1.224-0.324 1.764-0.936 0.648-0.576 1.116-1.656 1.8-2.844h-3.06z" fill="#E2B79C"/>
      <path stroke-linejoin="round" d="m354.9 249.83c0 6.948 1.98 12.564 4.357 12.564 2.412 0 4.355-5.616 4.355-12.564s-1.943-12.564-4.355-12.564c-2.38 0-4.36 5.61-4.36 12.56z" stroke="#000" stroke-linecap="round" stroke-miterlimit="10" stroke-width=".036" fill="#FB0F0C"/>
      <path stroke-linejoin="round" d="m480.72 226.07c-2.195-0.072-3.744 0.576-4.787 1.8-1.08 1.296-1.584 3.42-1.512 5.544 0 1.98 0.504 4.14 1.512 6.48l-0.611 6.443c0.395 2.124 1.367 3.744 3.311 5.256 1.836 1.513 5.041 3.492 7.813 3.313 2.699-0.433 5.867-3.024 8.531-5.4 2.449-2.448 3.637-6.336 6.77-8.892 3.168-2.628 7.127-4.824 12.168-6.732 1.332 1.729 2.734 2.88 4.355 3.601 1.512 0.611 4.969 0.899 5.111 0.432 0.109-0.612-3.564-1.944-4.355-3.6-0.828-1.729-1.08-3.78-0.611-6.444 1.367-1.224 2.771-2.772 4.355-4.788 1.584-2.124 4.031-4.536 4.969-7.236 0.719-2.844 0.791-5.796-0.182-9.288 1.441-1.943 1.549-3.563 0.469-5.399-1.115-1.872-4.248-4.968-7.057-5.256-2.951-0.288-8.207 1.873-10.08 3.42-1.871 1.368-2.412 3.023-1.332 4.968-1.223 0.252-1.979 0.324-2.268 0.612-0.396 0.252-0.287 0.324 0.18 0.611-1.475-0.035-2.303 0.108-2.879 0.576-0.613 0.396-0.576 1.044-0.289 1.944l-2.268 0.612c-1.512-1.729-3.061-2.772-4.787-2.988-1.873-0.396-4.32 0.18-5.545 1.332-1.188 1.116-1.691 3.204-1.512 5.868-1.512-1.332-3.061-1.98-4.789-1.656-1.764 0.216-3.527 3.672-5.723 3.168-2.34-0.576-6.012-5.148-7.957-6.336-2.016-1.224-4.139-2.124-3.744-0.9 0.396 1.188 3.961 5.832 5.832 7.813 1.693 1.8 2.916 2.952 4.5 3.312 1.477 0.396 2.846-0.828 4.682-1.044 1.764-0.359 3.959-0.612 6.299-0.899-0.035 2.951-0.432 5.075-1.043 6.768-0.686 1.584-1.584 2.304-2.846 2.844-1.28 0.53-2.79 0.53-4.66 0.17z" stroke="#000" stroke-linecap="round" stroke-miterlimit="10" stroke-width=".036"/>
      <path stroke-linejoin="round" d="m486.87 213c-1.332 0.216-2.627 0.612-3.887 1.044-1.225 0.36-2.16 2.16-3.781 1.512-1.836-0.792-5.832-5.327-6.588-5.544-0.791-0.144 1.26 3.061 2.268 4.356 0.973 1.08 1.945 2.484 3.602 2.7 1.547 0.216 3.814-1.26 5.832-1.368 1.943-0.252 3.852-0.252 5.867 0l-0.289-1.8c-1-0.28-2.01-0.57-3.02-0.9z" stroke="#000" stroke-linecap="round" stroke-miterlimit="10" stroke-width=".036" fill="#fff"/>
      <path stroke-linejoin="round" d="m509.7 219.92c1.225 1.26 1.943 2.664 2.557 4.356 0.504 1.619 0.107 3.888 0.611 5.399 0.396 1.368 0.9 1.908 1.943 2.988 0.9 1.044 2.197 2.052 3.744 3.168-0.971-1.729-1.619-3.528-2.23-5.4-0.469-2.088-0.828-4.464-1.225-6.155-0.648-1.765-1.297-3.169-2.232-3.925-0.87-0.77-2.02-0.91-3.17-0.44z" stroke="#000" stroke-linecap="round" stroke-miterlimit="10" stroke-width=".036" fill="#fff"/>
      <path stroke-linejoin="round" d="m502.78 209.55c0.252-0.252 3.42 1.765 4.355 2.7 0.613 0.792 0.576 1.728 0.324 2.124-0.252 0.324-0.756 0.216-1.512-0.468-0.79-0.86-3.42-4.06-3.17-4.35z" stroke="#000" stroke-linecap="round" stroke-miterlimit="10" stroke-width=".036" fill="#fff"/>
      <path stroke-linejoin="round" d="m506.38 207.6c0.072-0.287 3.744 1.477 4.357 2.089 0.539 0.611-0.182 1.584-0.9 1.367-0.76-0.36-3.67-3.31-3.46-3.46z" stroke="#000" stroke-linecap="round" stroke-miterlimit="10" stroke-width=".036" fill="#fff"/>
      <path stroke-linejoin="round" d="m509.26 204.9c0.072-0.181 3.889 1.836 4.645 2.556 0.576 0.54 0.324 1.44-0.469 1.044-0.85-0.5-4.24-3.45-4.17-3.6z" stroke="#000" stroke-linecap="round" stroke-miterlimit="10" stroke-width=".036" fill="#fff"/>
      <path stroke-linejoin="round" d="m509.55 215.56c0.576-0.54 0.973-0.936 1.189-1.188 0.215-0.288 0.035-0.54-0.145-0.612 0.756 0.324 1.404 0.145 1.656-0.144 0.252-0.468 0.252-1.044 0-2.124 0.828 0.936 1.584 1.044 2.268 0.324 0.611-0.864 1.477-3.492 1.619-4.824-0.035-1.296-0.576-2.484-1.332-2.988-0.863-0.612-1.836-0.864-3.311-0.612 1.26-1.8 2.807-2.951 4.5-3.743 1.584-0.864 3.959-1.116 5.58-0.757 1.656 0.433 3.563 1.44 4.176 3.168 0.504 1.549 0.576 3.097-1.045 6.156-1.727 3.024-4.68 6.696-9 11.557-1.115-1.225-2.123-2.124-3.168-2.845-1.02-0.7-2.06-1.2-3-1.38z" stroke="#000" stroke-linecap="round" stroke-miterlimit="10" stroke-width=".036" fill="#A16121"/>
      <path stroke-linejoin="round" d="m503.25 216.46c1.115 1.296 2.447 2.521 3.6 4.068 1.115 1.476 2.447 3.023 3.6 4.788-2.664 1.691-5.219 3.852-7.955 6.768-2.773 2.844-5.473 8.064-8.244 10.368-2.881 2.231-5.689 3.456-8.424 2.844-2.881-0.756-6.553-4.536-8.102-6.912-1.512-2.52-1.26-5.903-1.043-7.523-0.035-1.62 0.504-2.269 1.619-2.088 1.152 0.216 2.809 2.34 5.113 3.312 2.232 0.792 5.867 2.772 8.424 1.656 2.447-1.26 4.5-5.544 6.443-8.424 1.94-2.93 3.45-5.88 4.96-8.87z" stroke="#000" stroke-linecap="round" stroke-miterlimit="10" stroke-width=".036" fill="#A16121"/>
      <path stroke-linejoin="round" d="m501.13 214.05c-0.791-2.628-1.836-4.428-3.131-5.256-1.404-0.828-3.889-1.008-4.824 0.144-1.008 1.045-1.439 4.393-0.9 6.156 0.576 1.62 2.34 2.88 3.779 3.78 1.225 0.9 2.377 1.296 3.602 1.476 0.46-2.09 0.96-4.18 1.47-6.3z" stroke="#000" stroke-linecap="round" stroke-miterlimit="10" stroke-width=".036" fill="#A16121"/>
      <path stroke-linejoin="round" d="m477.26 240.94c1.477 2.916 3.096 4.823 5.256 5.867 2.16 1.009 4.932 0.828 7.199 0.288 2.053-0.611 3.205-2.052 5.256-3.924 2.018-2.016 4.178-5.112 6.77-7.632 2.52-2.592 5.328-5.148 8.424-7.668-0.252 1.908-0.252 3.312 0 4.212 0.143 0.864 0.539 1.116 1.188 0.9-3.564 1.512-6.516 3.312-8.855 5.256-2.412 1.979-3.24 3.996-5.4 6.443-2.305 2.305-5.328 6.48-7.813 7.813-2.627 1.116-4.932 0.792-7.057-0.145-2.051-0.972-3.852-2.592-5.256-5.256 0.07-2.06 0.18-4.11 0.29-6.16z" stroke="#000" stroke-linecap="round" stroke-miterlimit="10" stroke-width=".036" fill="#C0C0C0"/>
      <path stroke-linejoin="round" d="m517.36 222.33c0.541-0.864 1.584-2.376 3.133-4.68 1.547-2.376 3.6-5.292 6.156-9.145 1.402 1.584 1.223 3.888-0.145 6.769-1.477 2.88-4.32 6.336-8.533 10.512-0.17-1.15-0.39-2.3-0.61-3.45z" stroke="#000" stroke-linecap="round" stroke-miterlimit="10" stroke-width=".036" fill="#C0C0C0"/>
      <path stroke-linejoin="round" d="m440.33 94.023c-4.824-0.648-8.496-1.944-11.16-4.032-2.701-2.196-4.537-5.004-4.969-8.424-0.576-3.492 0-7.308 1.729-11.88 4.248-0.252 8.244 0.396 12.131 2.088 3.854 1.62 7.561 4.176 11.125 7.668 0.252-6.66 1.584-11.52 3.707-14.58 2.16-3.168 6.373-3.96 9.182-3.888 2.662 0.036 4.355 2.088 6.875 4.212 2.447 2.088 5.184 4.644 8.064 8.064 0.936-3.744 2.268-6.048 3.852-6.624 1.691-0.648 5.004 1.116 5.615 2.772 0.361 1.584-0.684 3.78-3.275 6.732 3.527 2.592 5.977 5.4 7.885 8.964 1.836 3.42 4.68 5.904 2.844 11.736-2.088 5.796-6.877 13.212-14.797 22.68-5.146-1.8-9.971-4.32-14.867-7.416-4.896-3.276-10.115-8.46-14.111-11.52-3.96-3.019-7.24-5.251-9.79-6.547z" stroke="#000" stroke-linecap="round" stroke-miterlimit="10" stroke-width=".036"/>
      <path stroke-linejoin="round" d="m451.23 95.895c-0.289-5.148-1.189-9.396-2.701-12.6-1.547-3.348-3.637-4.968-6.695-6.948-3.24-2.088-7.381-3.528-12.564-4.86 2.52 6.336 5.545 11.376 9.217 15.552 3.62 4.068 7.87 7.02 12.73 8.856z" stroke="#000" stroke-linecap="round" stroke-miterlimit="10" stroke-width=".036" fill="#C1E57A"/>
      <path stroke-linejoin="round" d="m426.79 73.503c-1.295 2.16-1.871 4.428-1.729 6.66 0 2.196 0.504 5.076 2.484 6.84 2.088 1.764 5.148 2.772 9.721 3.456-1.764-1.908-3.457-4.428-5.076-7.56-1.691-3.204-3.168-7.02-4.717-11.448l-0.67 2.052z" stroke="#000" stroke-linecap="round" stroke-miterlimit="10" stroke-width=".036" fill="#61A228"/>
      <path stroke-linejoin="round" d="m454.94 97.443c-0.504-1.656-1.045-3.42-1.477-5.724-0.467-2.268-0.971-4.932-1.367-7.848 3.383 3.708 6.408 5.544 9.072 5.508 2.627-0.144 6.371-2.736 6.768-5.832 0.18-3.276-2.809-10.476-5.076-12.996-2.268-2.484-5.148-3.023-8.496-1.764 2.125-3.168 4.428-4.752 6.912-4.896 2.484-0.216 5.041 1.836 7.813 4.068 2.771 2.304 5.58 5.256 8.711 9.396 0.396 5.112 0.037 10.152-1.367 15.264-1.439 5.04-3.637 10.116-6.877 15.228-3.168-2.772-5.795-4.788-8.279-6.588-2.49-1.765-4.47-2.989-6.31-3.817z" stroke="#000" stroke-linecap="round" stroke-miterlimit="10" stroke-width=".036" fill="#C1E57A"/>
      <path stroke-linejoin="round" d="m482.01 77.751c4.572 2.628 7.523 5.76 8.711 9.396 1.117 3.564 0.576 7.452-1.475 12.204-2.088 4.644-5.725 9.9-10.908 15.768l-5.617-6.12c4.141-4.788 7.057-9.72 8.605-14.94 1.56-5.293 1.74-10.585 0.69-16.309z" stroke="#000" stroke-linecap="round" stroke-miterlimit="10" stroke-width=".036" fill="#C1E57A"/>
      <path stroke-linejoin="round" d="m481.15 73.971c1.691-1.008 2.662-1.908 2.914-2.844 0.182-1.044-0.936-3.204-1.691-2.736-0.828 0.468-1.799 2.268-3.061 5.544 0.61 0 1.23 0 1.84 0.036z" stroke="#000" stroke-linecap="round" stroke-miterlimit="10" stroke-width=".036" fill="#C1E57A"/>
      <path stroke-linejoin="round" d="m455.84 70.839c1.295 0.54 4.176 2.304 5.58 4.608 1.367 2.196 2.52 6.768 2.195 8.568-0.539 1.584-3.455 2.16-5.148 1.584-1.871-0.756-4.391-2.844-5.184-5.148-0.791-2.34-0.035-6.48 0.469-8.136 0.35-1.656 0.82-2.016 2.08-1.476z" stroke="#000" stroke-linecap="round" stroke-miterlimit="10" stroke-width=".036" fill="#FB0F0C"/>
      <path stroke-linejoin="round" d="m429.42 145.36c9.035 2.628 16.092 5.436 21.311 8.424 5.113 2.952 7.813 6.372 9.9 9.432 1.98 3.024 3.205 8.532 2.305 8.352-0.973-0.468-3.457-7.128-7.74-10.26-4.428-3.132-13.141-6.336-17.965-8.352-4.752-2.088-8.242-3.348-10.475-3.924 0.86-1.22 1.76-2.45 2.66-3.67z" stroke="#000" stroke-linecap="round" stroke-miterlimit="10" stroke-width=".036"/>
      <path stroke-linejoin="round" d="m482.62 158.36c8.209 3.492 13.896 6.084 17.209 7.92 3.24 1.728 2.268 1.692 2.375 2.808 0.037 1.116-1.08 3.744-1.98 3.708-1.078-0.252-0.504-2.808-3.814-4.608-3.313-1.8-8.568-3.708-15.912-5.868-2.377 4.068-5.4 6.876-9.613 8.424-4.318 1.476-12.059 2.376-15.299 0.612-3.096-1.944-3.168-8.136-3.564-11.772-0.504-3.744 1.225-9.54 0.324-10.044-1.045-0.432-4.141 3.996-6.516 7.056-2.449 2.88-5.004 8.316-7.957 10.332-3.203 1.98-7.813 3.06-10.223 1.296-2.484-1.944-4.068-8.352-3.781-12.564 0.289-4.284 2.16-8.604 5.617-12.96 2.375-1.548 6.73-2.124 13.355-2.016 6.551 0.108 19.908 1.368 26.027 2.808 5.977 1.332 7.705 2.808 10.045 5.4 2.3 2.44 3.49 5.64 3.7 9.46z" stroke="#000" stroke-linecap="round" stroke-miterlimit="10" stroke-width=".036"/>
      <path stroke-linejoin="round" d="m456.17 146.84c2.447-3.24 12.455 1.296 16.02 2.52 3.455 1.116 4.787 1.98 4.969 4.68 0.107 2.808-1.297 8.964-4.5 11.52-3.385 2.484-12.313 5.724-15.121 2.772-2.74-3.24-3.9-18.36-1.37-21.49z" stroke="#000" stroke-linecap="round" stroke-miterlimit="10" stroke-width=".036" fill="#FAA70E"/>
      <path stroke-linejoin="round" d="m446.77 147.92c-0.504 2.232-3.996 6.624-6.588 9.72-2.701 2.988-6.48 8.352-8.82 8.172-2.412-0.288-5.076-6.156-5.076-9.54 0.072-3.564 2.484-9.072 5.293-11.124 2.699-2.124 8.135-1.44 10.764-1.008 2.53 0.32 4.66 1.58 4.44 3.78z" stroke="#000" stroke-linecap="round" stroke-miterlimit="10" stroke-width=".036" fill="#FAA70E"/>
    </g>
  </g>
  <metadata>
    <rdf:RDF>
      <cc:Work>
        <dc:format>image/svg+xml</dc:format>
        <dc:type rdf:resource="http://purl.org/dc/dcmitype/StillImage"/>
        <cc:license rdf:resource="http://creativecommons.org/licenses/publicdomain/"/>
        <dc:publisher>
          <cc:Agent rdf:about="http://openclipart.org/">
            <dc:title>Openclipart</dc:title>
          </cc:Agent>
        </dc:publisher>
        <dc:title>Beach Trip</dc:title>
        <dc:date>2007-11-14T17:59:14</dc:date>
        <dc:description>Adapted from AbiClipart project.&#xD;\nhttp://www.ibiblio.org/abiclipart</dc:description>
        <dc:source>http://openclipart.org/detail/8419/beach-trip-by-gerald_g-8419</dc:source>
        <dc:creator>
          <cc:Agent>
            <dc:title>Gerald_G</dc:title>
          </cc:Agent>
        </dc:creator>
        <dc:subject>
          <rdf:Bag>
            <rdf:li>abliclipart</rdf:li>
            <rdf:li>beach</rdf:li>
            <rdf:li>car</rdf:li>
            <rdf:li>cartoon</rdf:li>
            <rdf:li>clip art</rdf:li>
            <rdf:li>clipart</rdf:li>
            <rdf:li>colouring book</rdf:li>
            <rdf:li>externalsource</rdf:li>
            <rdf:li>people</rdf:li>
            <rdf:li>transportation</rdf:li>
          </rdf:Bag>
        </dc:subject>
      </cc:Work>
      <cc:License rdf:about="http://creativecommons.org/licenses/publicdomain/">
        <cc:permits rdf:resource="http://creativecommons.org/ns#Reproduction"/>
        <cc:permits rdf:resource="http://creativecommons.org/ns#Distribution"/>
        <cc:permits rdf:resource="http://creativecommons.org/ns#DerivativeWorks"/>
      </cc:License>
    </rdf:RDF>
  </metadata>
</svg>